<?xml version="1.0" encoding="utf-8"?>
<!-- Generator: Adobe Illustrator 18.0.0, SVG Export Plug-In . SVG Version: 6.00 Build 0)  -->
<!DOCTYPE svg PUBLIC "-//W3C//DTD SVG 1.1//EN" "http://www.w3.org/Graphics/SVG/1.1/DTD/svg11.dtd">
<svg version="1.1" id="Layer_1" xmlns="http://www.w3.org/2000/svg" xmlns:xlink="http://www.w3.org/1999/xlink" x="0px" y="0px"
	 viewBox="0 0 150 150" enable-background="new 0 0 150 150" xml:space="preserve">
<g>
	<g id="XMLID_00000061468058573036162250000004269599967539522486_">
		<g>
			
				<linearGradient id="SVGID_1_" gradientUnits="userSpaceOnUse" x1="3.2994" y1="77.3093" x2="-18.0874" y2="8.6078" gradientTransform="matrix(0.8812 0.4728 -0.4728 0.8812 44.368 -26.5465)">
				<stop  offset="0" style="stop-color:#B75FA9"/>
				<stop  offset="1" style="stop-color:#FF7457"/>
			</linearGradient>
			<path fill="url(#SVGID_1_)" d="M11.9,80.6c-0.7,0.1-1.2,0.2-1.4,0.2L7.2,17.9l1.1-0.1l10.6,7.8c-2.4,16.9-6,47.9-6.7,53.7
				C12,79.9,12,80.2,12,80.2L11.9,80.6z"/>
			
				<linearGradient id="SVGID_2_" gradientUnits="userSpaceOnUse" x1="0.4729" y1="80.6903" x2="35.0723" y2="82.4203" gradientTransform="matrix(0.8812 0.4728 -0.4728 0.8812 44.368 -26.5465)">
				<stop  offset="0" style="stop-color:#DCD2C4"/>
				<stop  offset="1" style="stop-color:#B5A089"/>
			</linearGradient>
			<polygon fill="url(#SVGID_2_)" points="12,80 13.2,16.8 44.1,36.6 23.7,72.4 			"/>
			
				<linearGradient id="SVGID_3_" gradientUnits="userSpaceOnUse" x1="15.9616" y1="115.2627" x2="-10.9917" y2="37.4788" gradientTransform="matrix(0.8812 0.4728 -0.4728 0.8812 44.368 -26.5465)">
				<stop  offset="0" style="stop-color:#B75FA9"/>
				<stop  offset="1" style="stop-color:#FF7457"/>
			</linearGradient>
			<polygon fill="url(#SVGID_3_)" points="11.6,79.4 10.6,80.8 7.2,17.9 8.2,17.8 			"/>
			
				<linearGradient id="SVGID_4_" gradientUnits="userSpaceOnUse" x1="41.7982" y1="30.4169" x2="128.5148" y2="34.7527" gradientTransform="matrix(0.9787 0.2051 -0.2051 0.9787 -1.0357 13.732)">
				<stop  offset="4.538780e-002" style="stop-color:#EAE5D3"/>
				<stop  offset="0.9942" style="stop-color:#DFD5BB"/>
			</linearGradient>
			<path fill="url(#SVGID_4_)" d="M20.8,14.5c5.1,5.8,82.7,51.2,84,51.3c-6.3,18.6-90.4,12.4-91,14.4c-0.7,0.1-1.3,0.2-1.8,0.3
				l0.1-0.3c0,0,4.2-35.9,6.8-54.6C19.8,18.8,20.5,14.2,20.8,14.5z"/>
			
				<linearGradient id="SVGID_5_" gradientUnits="userSpaceOnUse" x1="46.3751" y1="32.174" x2="55.8966" y2="156.9789" gradientTransform="matrix(0.8812 0.4728 -0.4728 0.8812 44.368 -26.5465)">
				<stop  offset="0" style="stop-color:#DCD2C4"/>
				<stop  offset="1" style="stop-color:#B5A089"/>
			</linearGradient>
			<path fill="url(#SVGID_5_)" d="M13.7,80.3L13.7,80.3c-0.7,0.1-1.3,0.2-1.8,0.3l0.1-0.3c0,0,0-0.1,0-0.2
				c0.3-2.9,4.3-36.5,6.8-54.4c0.9-6.8,1.7-11.4,2-11.1c1,1.2,11.2,0,11.2,0s71.7,51.3,72.7,51.4C98.4,84.4,14.8,78.3,13.7,80.3z"/>
			
				<linearGradient id="SVGID_6_" gradientUnits="userSpaceOnUse" x1="22.2157" y1="18.743" x2="56.4931" y2="78.5088" gradientTransform="matrix(0.8812 0.4728 -0.4728 0.8812 44.368 -26.5465)">
				<stop  offset="0" style="stop-color:#DCD2C4"/>
				<stop  offset="1" style="stop-color:#B5A089"/>
			</linearGradient>
			<polygon fill="url(#SVGID_6_)" points="41.7,12.9 17,79.9 77.3,89.1 97.1,61.9 			"/>
			
				<linearGradient id="SVGID_7_" gradientUnits="userSpaceOnUse" x1="0.8735" y1="36.5572" x2="22.4068" y2="103.94" gradientTransform="matrix(0.8812 0.4728 -0.4728 0.8812 44.368 -26.5465)">
				<stop  offset="4.538780e-002" style="stop-color:#EAE5D3"/>
				<stop  offset="0.9942" style="stop-color:#DFD5BB"/>
			</linearGradient>
			<path fill="url(#SVGID_7_)" d="M13.7,80.3L13.7,80.3L12,80c0.3-2.9,4.3-36.5,6.8-54.4c0.9-6.8,1.7-11.4,2-11.1
				c1,1.2,11.2,0,11.2,0L13.7,80.3z"/>
			
				<linearGradient id="SVGID_8_" gradientUnits="userSpaceOnUse" x1="60.4018" y1="47.2791" x2="63.4664" y2="115.6187" gradientTransform="matrix(0.8812 0.4728 -0.4728 0.8812 44.368 -26.5465)">
				<stop  offset="0" style="stop-color:#DCD2C4"/>
				<stop  offset="1" style="stop-color:#B5A089"/>
			</linearGradient>
			<polygon fill="url(#SVGID_8_)" points="51.7,13.3 17,79.9 77.3,89.1 107.2,62.2 			"/>
			
				<linearGradient id="SVGID_9_" gradientUnits="userSpaceOnUse" x1="50.2994" y1="28.2845" x2="53.3521" y2="96.3586" gradientTransform="matrix(0.8812 0.4728 -0.4728 0.8812 44.368 -26.5465)">
				<stop  offset="0" style="stop-color:#DCD2C4"/>
				<stop  offset="1" style="stop-color:#B5A089"/>
			</linearGradient>
			<path fill="url(#SVGID_9_)" d="M71.8,21.3c3,3.5,21.7,21.1,21.7,21.1L22,79.2c0,0-0.8,0.1-1.9,0.2l-0.1-0.4
				C39.9,52.5,71.8,21.3,71.8,21.3z"/>
			
				<linearGradient id="SVGID_10_" gradientUnits="userSpaceOnUse" x1="55.6516" y1="101.5095" x2="28.6984" y2="23.7262" gradientTransform="matrix(0.8812 0.4728 -0.4728 0.8812 44.368 -26.5465)">
				<stop  offset="0" style="stop-color:#B75FA9"/>
				<stop  offset="1" style="stop-color:#FF7457"/>
			</linearGradient>
			<path fill="url(#SVGID_10_)" d="M81.8,24.4C74,35,39,82.8,34.4,89.1c-0.2,0.3-0.4,0.5-0.5,0.6c-0.3,0.4-1.9,0.4-4,0.2L21.2,78
				l56.7-55l2-0.3L81.8,24.4z"/>
			
				<linearGradient id="SVGID_11_" gradientUnits="userSpaceOnUse" x1="31.5841" y1="109.8492" x2="4.6309" y2="32.0655" gradientTransform="matrix(0.8812 0.4728 -0.4728 0.8812 44.368 -26.5465)">
				<stop  offset="0" style="stop-color:#B75FA9"/>
				<stop  offset="1" style="stop-color:#FF7457"/>
			</linearGradient>
			<path fill="url(#SVGID_11_)" d="M29.9,89.9c-3-0.4-7.1-1.3-11.1-2.2l-8.3-6.9l1-1.4l0.5-0.1l9.1-1.3L29.9,89.9z"/>
			
				<linearGradient id="SVGID_12_" gradientUnits="userSpaceOnUse" x1="36.0061" y1="45.7106" x2="155.4266" y2="45.7106" gradientTransform="matrix(0.9787 0.2051 -0.2051 0.9787 -1.0357 13.732)">
				<stop  offset="0" style="stop-color:#B75FA9"/>
				<stop  offset="1" style="stop-color:#FF7457"/>
			</linearGradient>
			<polygon fill="url(#SVGID_12_)" points="142.8,85 91,134.5 34.4,89.1 22,79.2 75.3,27.2 80,22.6 81.8,24.5 			"/>
			<g opacity="0.5">
				
					<linearGradient id="SVGID_13_" gradientUnits="userSpaceOnUse" x1="61.2185" y1="37.8147" x2="106.5512" y2="37.8147" gradientTransform="matrix(0.9787 0.2051 -0.2051 0.9787 -1.0357 13.732)">
					<stop  offset="0" style="stop-color:#BE8DB6"/>
					<stop  offset="1" style="stop-color:#AA73A2"/>
				</linearGradient>
				<polygon fill="url(#SVGID_13_)" points="98.1,60 65.1,92.2 48.1,77.8 81.5,43.7 				"/>
				<g>
					
						<linearGradient id="SVGID_14_" gradientUnits="userSpaceOnUse" x1="99.8701" y1="55.8107" x2="121.1062" y2="55.8107" gradientTransform="matrix(0.9787 0.2051 -0.2051 0.9787 -1.0357 13.732)">
						<stop  offset="0" style="stop-color:#BE8DB6"/>
						<stop  offset="1" style="stop-color:#AA73A2"/>
					</linearGradient>
					<polygon fill="url(#SVGID_14_)" points="109.2,78.1 83,104.8 82.1,103.9 108.3,77.2 					"/>
					
						<linearGradient id="SVGID_15_" gradientUnits="userSpaceOnUse" x1="102.9272" y1="57.7647" x2="124.1633" y2="57.7647" gradientTransform="matrix(0.9787 0.2051 -0.2051 0.9787 -1.0357 13.732)">
						<stop  offset="0" style="stop-color:#BE8DB6"/>
						<stop  offset="1" style="stop-color:#AA73A2"/>
					</linearGradient>
					<polygon fill="url(#SVGID_15_)" points="111.8,80.6 85.6,107.4 84.7,106.5 110.9,79.7 					"/>
					
						<linearGradient id="SVGID_16_" gradientUnits="userSpaceOnUse" x1="105.9842" y1="59.7186" x2="127.2203" y2="59.7186" gradientTransform="matrix(0.9787 0.2051 -0.2051 0.9787 -1.0357 13.732)">
						<stop  offset="0" style="stop-color:#BE8DB6"/>
						<stop  offset="1" style="stop-color:#AA73A2"/>
					</linearGradient>
					<polygon fill="url(#SVGID_16_)" points="114.4,83.2 88.2,109.9 87.3,109 113.5,82.3 					"/>
					
						<linearGradient id="SVGID_17_" gradientUnits="userSpaceOnUse" x1="109.0412" y1="61.6726" x2="130.2773" y2="61.6726" gradientTransform="matrix(0.9787 0.2051 -0.2051 0.9787 -1.0357 13.732)">
						<stop  offset="0" style="stop-color:#BE8DB6"/>
						<stop  offset="1" style="stop-color:#AA73A2"/>
					</linearGradient>
					<polygon fill="url(#SVGID_17_)" points="117,85.7 90.8,112.4 89.9,111.5 116.1,84.8 					"/>
					
						<linearGradient id="SVGID_18_" gradientUnits="userSpaceOnUse" x1="115.7267" y1="63.6265" x2="129.7058" y2="63.6265" gradientTransform="matrix(0.9787 0.2051 -0.2051 0.9787 -1.0357 13.732)">
						<stop  offset="0" style="stop-color:#BE8DB6"/>
						<stop  offset="1" style="stop-color:#AA73A2"/>
					</linearGradient>
					<polygon fill="url(#SVGID_18_)" points="114.9,93.1 98.1,110.2 97.2,109.3 113.9,92.2 					"/>
				</g>
			</g>
		</g>
	</g>
	
		<linearGradient id="SVGID_19_" gradientUnits="userSpaceOnUse" x1="76.7459" y1="136.6207" x2="40.7105" y2="35.546" gradientTransform="matrix(0.8812 0.4728 -0.4728 0.8812 44.368 -26.5465)">
		<stop  offset="0" style="stop-color:#B75FA9"/>
		<stop  offset="1" style="stop-color:#FF7457"/>
	</linearGradient>
	<path fill="url(#SVGID_19_)" d="M91,134.5l-10,2.5L18.9,87.7l-8.3-6.9c0.1,0,0.6-0.1,1.4-0.2c0.5-0.1,1.1-0.2,1.8-0.3
		c1-0.1,2.1-0.3,3.2-0.5c1.2-0.2,2.3-0.3,3.2-0.4c1.1-0.1,1.9-0.2,1.9-0.2l12.3,9.9L91,134.5z"/>
</g>
</svg>
