<?xml version="1.0" encoding="utf-8"?>
<!-- Generator: Adobe Illustrator 18.0.0, SVG Export Plug-In . SVG Version: 6.00 Build 0)  -->
<!DOCTYPE svg PUBLIC "-//W3C//DTD SVG 1.1//EN" "http://www.w3.org/Graphics/SVG/1.1/DTD/svg11.dtd">
<svg version="1.1" id="Layer_1" xmlns="http://www.w3.org/2000/svg" xmlns:xlink="http://www.w3.org/1999/xlink" x="0px" y="0px"
	 viewBox="0 0 170.3 32.3" enable-background="new 0 0 170.3 32.3" xml:space="preserve">
<g>
	<path d="M31.2,12.6c0,0.4-0.1,0.7-0.2,1c-0.1,0.3-0.3,0.6-0.5,0.8c-0.2,0.2-0.5,0.4-0.8,0.5c-0.3,0.1-0.7,0.2-1.2,0.2h-2.3v3.2
		h-1.1v-8.3h3.3c0.5,0,0.9,0.1,1.2,0.2c0.3,0.1,0.6,0.3,0.9,0.5c0.2,0.2,0.4,0.5,0.5,0.8C31.1,11.9,31.2,12.2,31.2,12.6z M30.1,12.6
		c0-0.5-0.2-0.9-0.5-1.2c-0.3-0.3-0.8-0.4-1.4-0.4h-2.1v3.3h2.2c0.6,0,1.1-0.1,1.3-0.4C30,13.6,30.1,13.2,30.1,12.6z"/>
	<path d="M37.9,18.4L37,16h-3.6l-0.9,2.4h-1.1l3.2-8.3h1.2l3.2,8.3H37.9z M35.7,12.4c-0.1-0.2-0.1-0.3-0.2-0.5
		c-0.1-0.2-0.1-0.3-0.1-0.4c0-0.1-0.1-0.2-0.1-0.3c0-0.1,0-0.1,0-0.2c0,0,0,0.1,0,0.2c0,0.1-0.1,0.2-0.1,0.3c0,0.1-0.1,0.3-0.1,0.4
		c-0.1,0.2-0.1,0.3-0.2,0.5l-1,2.7h2.9L35.7,12.4z"/>
	<path d="M46.5,12.6c0,0.4-0.1,0.7-0.2,1c-0.1,0.3-0.3,0.6-0.5,0.8c-0.2,0.2-0.5,0.4-0.8,0.5c-0.3,0.1-0.7,0.2-1.2,0.2h-2.3v3.2
		h-1.1v-8.3h3.3c0.5,0,0.9,0.1,1.2,0.2c0.3,0.1,0.6,0.3,0.9,0.5c0.2,0.2,0.4,0.5,0.5,0.8C46.4,11.9,46.5,12.2,46.5,12.6z M45.4,12.6
		c0-0.5-0.2-0.9-0.5-1.2c-0.3-0.3-0.8-0.4-1.4-0.4h-2.1v3.3h2.2c0.6,0,1.1-0.1,1.3-0.4C45.3,13.6,45.4,13.2,45.4,12.6z"/>
	<path d="M53.2,18.4L52.3,16h-3.6l-0.9,2.4h-1.1l3.2-8.3h1.2l3.2,8.3H53.2z M51,12.4c-0.1-0.2-0.1-0.3-0.2-0.5
		c-0.1-0.2-0.1-0.3-0.1-0.4c0-0.1-0.1-0.2-0.1-0.3c0-0.1,0-0.1,0-0.2c0,0,0,0.1,0,0.2c0,0.1-0.1,0.2-0.1,0.3c0,0.1-0.1,0.3-0.1,0.4
		c-0.1,0.2-0.1,0.3-0.2,0.5l-1,2.7H52L51,12.4z"/>
	<path d="M61.3,18.4h-6.2v-0.8l4.8-6.5h-4.4v-0.9h5.6v0.8l-4.8,6.5h5V18.4z"/>
	<path d="M63.2,18.4v-8.3h1.1v8.3H63.2z"/>
	<path d="M72.9,16.1c0,0.3-0.1,0.7-0.2,1c-0.1,0.3-0.3,0.5-0.6,0.8c-0.3,0.2-0.6,0.4-1,0.5c-0.4,0.1-0.9,0.2-1.4,0.2
		c-1,0-1.7-0.2-2.3-0.5c-0.5-0.4-0.9-0.9-1-1.6l1-0.2c0.1,0.2,0.1,0.4,0.2,0.6c0.1,0.2,0.3,0.3,0.4,0.5c0.2,0.1,0.4,0.2,0.7,0.3
		c0.3,0.1,0.6,0.1,1,0.1c0.3,0,0.6,0,0.9-0.1c0.3-0.1,0.5-0.1,0.7-0.3c0.2-0.1,0.3-0.3,0.4-0.5c0.1-0.2,0.2-0.4,0.2-0.7
		c0-0.3-0.1-0.5-0.2-0.7c-0.1-0.2-0.3-0.3-0.5-0.4c-0.2-0.1-0.5-0.2-0.8-0.3c-0.3-0.1-0.6-0.2-1-0.2c-0.2-0.1-0.4-0.1-0.7-0.2
		c-0.2-0.1-0.4-0.1-0.6-0.2c-0.2-0.1-0.4-0.2-0.6-0.3c-0.2-0.1-0.3-0.2-0.5-0.4c-0.1-0.2-0.2-0.3-0.3-0.6c-0.1-0.2-0.1-0.5-0.1-0.7
		c0-0.4,0.1-0.7,0.2-1s0.4-0.5,0.6-0.7c0.3-0.2,0.6-0.3,0.9-0.4c0.4-0.1,0.8-0.1,1.2-0.1c0.5,0,0.9,0,1.2,0.1
		c0.3,0.1,0.6,0.2,0.9,0.4c0.2,0.2,0.4,0.4,0.6,0.6c0.1,0.2,0.3,0.5,0.3,0.8l-1,0.2c-0.1-0.2-0.1-0.4-0.2-0.5
		c-0.1-0.2-0.2-0.3-0.4-0.4c-0.2-0.1-0.4-0.2-0.6-0.2s-0.5-0.1-0.8-0.1c-0.4,0-0.7,0-0.9,0.1c-0.2,0.1-0.4,0.2-0.6,0.3
		c-0.2,0.1-0.3,0.3-0.3,0.4c-0.1,0.2-0.1,0.3-0.1,0.5c0,0.2,0.1,0.4,0.2,0.6c0.1,0.2,0.3,0.3,0.5,0.4c0.2,0.1,0.4,0.2,0.7,0.3
		c0.3,0.1,0.5,0.1,0.8,0.2c0.2,0.1,0.5,0.1,0.7,0.2c0.2,0.1,0.5,0.1,0.7,0.2c0.2,0.1,0.4,0.2,0.6,0.3c0.2,0.1,0.4,0.3,0.5,0.4
		c0.1,0.2,0.3,0.4,0.3,0.6C72.8,15.5,72.9,15.8,72.9,16.1z"/>
	<path d="M80.9,16.1c0,0.3-0.1,0.7-0.2,1c-0.1,0.3-0.3,0.5-0.6,0.8c-0.3,0.2-0.6,0.4-1,0.5c-0.4,0.1-0.9,0.2-1.4,0.2
		c-1,0-1.7-0.2-2.3-0.5c-0.5-0.4-0.9-0.9-1-1.6l1-0.2c0.1,0.2,0.1,0.4,0.2,0.6c0.1,0.2,0.3,0.3,0.4,0.5c0.2,0.1,0.4,0.2,0.7,0.3
		c0.3,0.1,0.6,0.1,1,0.1c0.3,0,0.6,0,0.9-0.1c0.3-0.1,0.5-0.1,0.7-0.3c0.2-0.1,0.3-0.3,0.4-0.5c0.1-0.2,0.2-0.4,0.2-0.7
		c0-0.3-0.1-0.5-0.2-0.7c-0.1-0.2-0.3-0.3-0.5-0.4c-0.2-0.1-0.5-0.2-0.8-0.3c-0.3-0.1-0.6-0.2-1-0.2c-0.2-0.1-0.4-0.1-0.7-0.2
		c-0.2-0.1-0.4-0.1-0.6-0.2c-0.2-0.1-0.4-0.2-0.6-0.3c-0.2-0.1-0.3-0.2-0.5-0.4c-0.1-0.2-0.2-0.3-0.3-0.6c-0.1-0.2-0.1-0.5-0.1-0.7
		c0-0.4,0.1-0.7,0.2-1s0.4-0.5,0.6-0.7c0.3-0.2,0.6-0.3,0.9-0.4c0.4-0.1,0.8-0.1,1.2-0.1c0.5,0,0.9,0,1.2,0.1
		c0.3,0.1,0.6,0.2,0.9,0.4c0.2,0.2,0.4,0.4,0.6,0.6c0.1,0.2,0.3,0.5,0.3,0.8l-1,0.2c-0.1-0.2-0.1-0.4-0.2-0.5
		c-0.1-0.2-0.2-0.3-0.4-0.4c-0.2-0.1-0.4-0.2-0.6-0.2c-0.2-0.1-0.5-0.1-0.8-0.1c-0.4,0-0.7,0-0.9,0.1c-0.2,0.1-0.4,0.2-0.6,0.3
		s-0.3,0.3-0.3,0.4c-0.1,0.2-0.1,0.3-0.1,0.5c0,0.2,0.1,0.4,0.2,0.6c0.1,0.2,0.3,0.3,0.5,0.4c0.2,0.1,0.4,0.2,0.7,0.3
		c0.3,0.1,0.5,0.1,0.8,0.2c0.2,0.1,0.5,0.1,0.7,0.2c0.2,0.1,0.5,0.1,0.7,0.2c0.2,0.1,0.4,0.2,0.6,0.3c0.2,0.1,0.4,0.3,0.5,0.4
		c0.1,0.2,0.3,0.4,0.3,0.6C80.9,15.5,80.9,15.8,80.9,16.1z"/>
	<path d="M83,18.4v-8.3H84v8.3H83z"/>
	<path d="M92.6,16.1c0,0.3-0.1,0.7-0.2,1c-0.1,0.3-0.3,0.5-0.6,0.8c-0.3,0.2-0.6,0.4-1,0.5c-0.4,0.1-0.9,0.2-1.4,0.2
		c-1,0-1.7-0.2-2.3-0.5c-0.5-0.4-0.9-0.9-1-1.6l1-0.2c0.1,0.2,0.1,0.4,0.2,0.6c0.1,0.2,0.3,0.3,0.4,0.5c0.2,0.1,0.4,0.2,0.7,0.3
		c0.3,0.1,0.6,0.1,1,0.1c0.3,0,0.6,0,0.9-0.1c0.3-0.1,0.5-0.1,0.7-0.3c0.2-0.1,0.3-0.3,0.4-0.5c0.1-0.2,0.2-0.4,0.2-0.7
		c0-0.3-0.1-0.5-0.2-0.7c-0.1-0.2-0.3-0.3-0.5-0.4c-0.2-0.1-0.5-0.2-0.8-0.3c-0.3-0.1-0.6-0.2-1-0.2c-0.2-0.1-0.4-0.1-0.7-0.2
		c-0.2-0.1-0.4-0.1-0.6-0.2c-0.2-0.1-0.4-0.2-0.6-0.3c-0.2-0.1-0.3-0.2-0.5-0.4c-0.1-0.2-0.2-0.3-0.3-0.6c-0.1-0.2-0.1-0.5-0.1-0.7
		c0-0.4,0.1-0.7,0.2-1s0.4-0.5,0.6-0.7c0.3-0.2,0.6-0.3,0.9-0.4C88.6,10,89,10,89.4,10c0.5,0,0.9,0,1.2,0.1c0.3,0.1,0.6,0.2,0.9,0.4
		c0.2,0.2,0.4,0.4,0.6,0.6c0.1,0.2,0.3,0.5,0.3,0.8l-1,0.2c-0.1-0.2-0.1-0.4-0.2-0.5c-0.1-0.2-0.2-0.3-0.4-0.4
		c-0.2-0.1-0.4-0.2-0.6-0.2s-0.5-0.1-0.8-0.1c-0.4,0-0.7,0-0.9,0.1c-0.2,0.1-0.4,0.2-0.6,0.3c-0.2,0.1-0.3,0.3-0.3,0.4
		c-0.1,0.2-0.1,0.3-0.1,0.5c0,0.2,0.1,0.4,0.2,0.6c0.1,0.2,0.3,0.3,0.5,0.4c0.2,0.1,0.4,0.2,0.7,0.3c0.3,0.1,0.5,0.1,0.8,0.2
		c0.2,0.1,0.5,0.1,0.7,0.2c0.2,0.1,0.5,0.1,0.7,0.2c0.2,0.1,0.4,0.2,0.6,0.3c0.2,0.1,0.4,0.3,0.5,0.4c0.1,0.2,0.3,0.4,0.3,0.6
		C92.6,15.5,92.6,15.8,92.6,16.1z"/>
	<path d="M104.2,12.6c0,0.4-0.1,0.7-0.2,1c-0.1,0.3-0.3,0.6-0.5,0.8c-0.2,0.2-0.5,0.4-0.8,0.5c-0.3,0.1-0.7,0.2-1.2,0.2h-2.3v3.2
		h-1.1v-8.3h3.3c0.5,0,0.9,0.1,1.2,0.2c0.3,0.1,0.6,0.3,0.9,0.5c0.2,0.2,0.4,0.5,0.5,0.8C104.2,11.9,104.2,12.2,104.2,12.6z
		 M103.1,12.6c0-0.5-0.2-0.9-0.5-1.2c-0.3-0.3-0.8-0.4-1.4-0.4h-2.1v3.3h2.2c0.6,0,1.1-0.1,1.3-0.4C103,13.6,103.1,13.2,103.1,12.6z
		"/>
	<path d="M108.9,18.5c-0.4,0-0.8-0.1-1.2-0.2c-0.4-0.1-0.7-0.3-1-0.6c-0.3-0.3-0.5-0.6-0.7-1c-0.2-0.4-0.3-0.9-0.3-1.4v-5.3h1.1v5.2
		c0,0.4,0.1,0.8,0.2,1.1c0.1,0.3,0.3,0.5,0.4,0.7c0.2,0.2,0.4,0.3,0.7,0.4c0.3,0.1,0.5,0.1,0.8,0.1c0.3,0,0.6,0,0.9-0.1
		c0.3-0.1,0.5-0.2,0.7-0.4s0.4-0.4,0.5-0.7c0.1-0.3,0.2-0.7,0.2-1.1v-5.1h1.1v5.2c0,0.6-0.1,1-0.3,1.4c-0.2,0.4-0.4,0.7-0.7,1
		c-0.3,0.3-0.6,0.5-1,0.6C109.8,18.4,109.3,18.5,108.9,18.5z"/>
	<path d="M120,16c0,0.4-0.1,0.8-0.2,1.1c-0.2,0.3-0.4,0.5-0.6,0.7c-0.3,0.2-0.6,0.3-0.9,0.4c-0.3,0.1-0.7,0.1-1.1,0.1H114v-8.3h2.8
		c0.4,0,0.8,0,1.2,0.1c0.3,0.1,0.6,0.2,0.9,0.4c0.2,0.2,0.4,0.4,0.5,0.6c0.1,0.3,0.2,0.6,0.2,0.9c0,0.2,0,0.4-0.1,0.7
		c-0.1,0.2-0.2,0.4-0.3,0.6c-0.1,0.2-0.3,0.3-0.5,0.4s-0.4,0.2-0.7,0.3c0.3,0,0.6,0.1,0.8,0.2c0.2,0.1,0.4,0.3,0.6,0.4
		c0.2,0.2,0.3,0.4,0.4,0.6C120,15.5,120,15.8,120,16z M118.5,12.3c0-0.4-0.1-0.8-0.4-1c-0.3-0.2-0.7-0.3-1.3-0.3H115v2.6h1.8
		c0.3,0,0.6,0,0.8-0.1c0.2-0.1,0.4-0.2,0.5-0.3c0.1-0.1,0.2-0.3,0.3-0.4C118.5,12.7,118.5,12.5,118.5,12.3z M119,16
		c0-0.3,0-0.5-0.1-0.7c-0.1-0.2-0.2-0.3-0.4-0.5c-0.2-0.1-0.4-0.2-0.6-0.3c-0.2-0.1-0.5-0.1-0.8-0.1h-2v3h2.1c0.3,0,0.5,0,0.7-0.1
		c0.2,0,0.4-0.1,0.6-0.2c0.2-0.1,0.3-0.3,0.4-0.5C118.9,16.5,119,16.3,119,16z"/>
	<path d="M121.6,18.4v-8.3h1.1v7.3h4v0.9H121.6z"/>
	<path d="M128,18.4v-8.3h1.1v8.3H128z"/>
	<path d="M137.2,16.1c0,0.3-0.1,0.7-0.2,1c-0.1,0.3-0.3,0.5-0.6,0.8c-0.3,0.2-0.6,0.4-1,0.5c-0.4,0.1-0.9,0.2-1.4,0.2
		c-1,0-1.7-0.2-2.3-0.5c-0.5-0.4-0.9-0.9-1-1.6l1-0.2c0.1,0.2,0.1,0.4,0.2,0.6c0.1,0.2,0.3,0.3,0.4,0.5c0.2,0.1,0.4,0.2,0.7,0.3
		c0.3,0.1,0.6,0.1,1,0.1c0.3,0,0.6,0,0.9-0.1c0.3-0.1,0.5-0.1,0.7-0.3c0.2-0.1,0.3-0.3,0.4-0.5c0.1-0.2,0.2-0.4,0.2-0.7
		c0-0.3-0.1-0.5-0.2-0.7c-0.1-0.2-0.3-0.3-0.5-0.4c-0.2-0.1-0.5-0.2-0.8-0.3c-0.3-0.1-0.6-0.2-1-0.2c-0.2-0.1-0.4-0.1-0.7-0.2
		c-0.2-0.1-0.4-0.1-0.6-0.2c-0.2-0.1-0.4-0.2-0.6-0.3c-0.2-0.1-0.3-0.2-0.5-0.4c-0.1-0.2-0.2-0.3-0.3-0.6c-0.1-0.2-0.1-0.5-0.1-0.7
		c0-0.4,0.1-0.7,0.2-1c0.2-0.3,0.4-0.5,0.6-0.7c0.3-0.2,0.6-0.3,0.9-0.4c0.4-0.1,0.8-0.1,1.2-0.1c0.5,0,0.9,0,1.2,0.1
		c0.3,0.1,0.6,0.2,0.9,0.4c0.2,0.2,0.4,0.4,0.6,0.6c0.1,0.2,0.3,0.5,0.3,0.8l-1,0.2c-0.1-0.2-0.1-0.4-0.2-0.5
		c-0.1-0.2-0.2-0.3-0.4-0.4c-0.2-0.1-0.4-0.2-0.6-0.2c-0.2-0.1-0.5-0.1-0.8-0.1c-0.4,0-0.7,0-0.9,0.1c-0.2,0.1-0.4,0.2-0.6,0.3
		c-0.2,0.1-0.3,0.3-0.3,0.4c-0.1,0.2-0.1,0.3-0.1,0.5c0,0.2,0.1,0.4,0.2,0.6c0.1,0.2,0.3,0.3,0.5,0.4c0.2,0.1,0.4,0.2,0.7,0.3
		c0.3,0.1,0.5,0.1,0.8,0.2c0.2,0.1,0.5,0.1,0.7,0.2c0.2,0.1,0.5,0.1,0.7,0.2c0.2,0.1,0.4,0.2,0.6,0.3c0.2,0.1,0.4,0.3,0.5,0.4
		c0.1,0.2,0.3,0.4,0.3,0.6C137.2,15.5,137.2,15.8,137.2,16.1z"/>
	<path d="M144,18.4v-3.8h-4.2v3.8h-1.1v-8.3h1.1v3.5h4.2v-3.5h1.1v8.3H144z"/>
	<path d="M146.9,18.4v-8.3h6V11H148v2.6h4.6v0.9H148v2.9h5.1v0.9H146.9z"/>
	<path d="M160.1,18.4l-2-3.4h-2.4v3.4h-1.1v-8.3h3.7c0.4,0,0.8,0.1,1.2,0.2c0.3,0.1,0.6,0.3,0.9,0.5c0.2,0.2,0.4,0.5,0.5,0.7
		c0.1,0.3,0.2,0.6,0.2,1c0,0.3,0,0.5-0.1,0.8c-0.1,0.3-0.2,0.5-0.3,0.7c-0.2,0.2-0.4,0.4-0.6,0.5c-0.2,0.2-0.5,0.3-0.9,0.3l2.2,3.6
		H160.1z M159.9,12.5c0-0.3,0-0.5-0.1-0.7c-0.1-0.2-0.2-0.3-0.4-0.5c-0.2-0.1-0.3-0.2-0.6-0.3c-0.2-0.1-0.5-0.1-0.8-0.1h-2.5v3h2.6
		c0.3,0,0.6,0,0.8-0.1c0.2-0.1,0.4-0.2,0.5-0.3c0.1-0.1,0.2-0.3,0.3-0.5C159.9,12.9,159.9,12.7,159.9,12.5z"/>
	<path d="M168.9,16.1c0,0.3-0.1,0.7-0.2,1c-0.1,0.3-0.3,0.5-0.6,0.8c-0.3,0.2-0.6,0.4-1,0.5c-0.4,0.1-0.9,0.2-1.4,0.2
		c-1,0-1.7-0.2-2.3-0.5c-0.5-0.4-0.9-0.9-1-1.6l1-0.2c0.1,0.2,0.1,0.4,0.2,0.6c0.1,0.2,0.3,0.3,0.4,0.5c0.2,0.1,0.4,0.2,0.7,0.3
		c0.3,0.1,0.6,0.1,1,0.1c0.3,0,0.6,0,0.9-0.1c0.3-0.1,0.5-0.1,0.7-0.3c0.2-0.1,0.3-0.3,0.4-0.5c0.1-0.2,0.2-0.4,0.2-0.7
		c0-0.3-0.1-0.5-0.2-0.7c-0.1-0.2-0.3-0.3-0.5-0.4c-0.2-0.1-0.5-0.2-0.8-0.3c-0.3-0.1-0.6-0.2-1-0.2c-0.2-0.1-0.4-0.1-0.7-0.2
		c-0.2-0.1-0.4-0.1-0.6-0.2c-0.2-0.1-0.4-0.2-0.6-0.3c-0.2-0.1-0.3-0.2-0.5-0.4s-0.2-0.3-0.3-0.6c-0.1-0.2-0.1-0.5-0.1-0.7
		c0-0.4,0.1-0.7,0.2-1s0.4-0.5,0.6-0.7c0.3-0.2,0.6-0.3,0.9-0.4c0.4-0.1,0.8-0.1,1.2-0.1c0.5,0,0.9,0,1.2,0.1
		c0.3,0.1,0.6,0.2,0.9,0.4c0.2,0.2,0.4,0.4,0.6,0.6c0.1,0.2,0.3,0.5,0.3,0.8l-1,0.2c-0.1-0.2-0.1-0.4-0.2-0.5
		c-0.1-0.2-0.2-0.3-0.4-0.4c-0.2-0.1-0.4-0.2-0.6-0.2s-0.5-0.1-0.8-0.1c-0.4,0-0.7,0-0.9,0.1c-0.2,0.1-0.4,0.2-0.6,0.3
		c-0.2,0.1-0.3,0.3-0.3,0.4c-0.1,0.2-0.1,0.3-0.1,0.5c0,0.2,0.1,0.4,0.2,0.6c0.1,0.2,0.3,0.3,0.5,0.4c0.2,0.1,0.4,0.2,0.7,0.3
		s0.5,0.1,0.8,0.2c0.2,0.1,0.5,0.1,0.7,0.2c0.2,0.1,0.5,0.1,0.7,0.2c0.2,0.1,0.4,0.2,0.6,0.3c0.2,0.1,0.4,0.3,0.5,0.4
		c0.1,0.2,0.3,0.4,0.3,0.6C168.9,15.5,168.9,15.8,168.9,16.1z"/>
</g>
<polygon fill="#C40D42" stroke="#C40D42" stroke-width="9.877100e-002" points="8.3,11.5 8.3,20.4 1.5,20.4 1.5,1.6 20.4,1.6 
	20.4,20.4 13.7,20.4 13.7,11.5 16.6,11.5 11,5.9 5.3,11.5 "/>
<g>
	<path fill="#58595B" d="M117.5,28.4c0,0.3-0.1,0.5-0.2,0.8c-0.1,0.2-0.3,0.4-0.5,0.5c-0.2,0.1-0.5,0.3-0.8,0.3
		c-0.3,0.1-0.6,0.1-1,0.1c-0.3,0-0.6,0-0.8-0.1c-0.2-0.1-0.4-0.1-0.6-0.2c-0.2-0.1-0.3-0.2-0.4-0.4c-0.1-0.2-0.2-0.3-0.3-0.5
		l0.8-0.3c0.1,0.1,0.1,0.3,0.2,0.4c0.1,0.1,0.2,0.2,0.3,0.3c0.1,0.1,0.3,0.1,0.4,0.2c0.2,0,0.4,0.1,0.6,0.1c0.2,0,0.4,0,0.6-0.1
		c0.2,0,0.3-0.1,0.5-0.2c0.1-0.1,0.2-0.2,0.3-0.3c0.1-0.1,0.1-0.3,0.1-0.4c0-0.1,0-0.3-0.1-0.4c-0.1-0.1-0.2-0.2-0.3-0.3
		c-0.1-0.1-0.3-0.1-0.4-0.2c-0.2-0.1-0.4-0.1-0.6-0.2c-0.2-0.1-0.4-0.2-0.6-0.2c-0.2-0.1-0.4-0.2-0.5-0.3c-0.2-0.1-0.3-0.3-0.4-0.4
		c-0.1-0.2-0.1-0.4-0.1-0.6c0-0.3,0.1-0.5,0.2-0.7c0.1-0.2,0.3-0.4,0.5-0.5c0.2-0.1,0.4-0.2,0.7-0.3c0.3-0.1,0.6-0.1,0.9-0.1
		c0.3,0,0.5,0,0.8,0.1c0.2,0,0.4,0.1,0.6,0.2c0.2,0.1,0.3,0.2,0.4,0.4c0.1,0.2,0.2,0.4,0.2,0.6l-0.8,0.1c-0.1-0.3-0.2-0.5-0.4-0.6
		c-0.2-0.1-0.5-0.2-0.8-0.2c-0.2,0-0.4,0-0.5,0c-0.2,0-0.3,0.1-0.4,0.1c-0.1,0.1-0.2,0.1-0.3,0.2c-0.1,0.1-0.1,0.2-0.1,0.4
		c0,0.1,0,0.3,0.1,0.4c0.1,0.1,0.2,0.2,0.3,0.2c0.1,0.1,0.3,0.1,0.4,0.2c0.2,0.1,0.4,0.1,0.6,0.2c0.2,0.1,0.4,0.1,0.6,0.2
		c0.2,0.1,0.4,0.2,0.5,0.3c0.2,0.1,0.3,0.3,0.4,0.4C117.5,28,117.5,28.2,117.5,28.4z"/>
	<path fill="#58595B" d="M118.8,30.1l1.1-5.5h0.9l-1.1,5.5H118.8z M120.1,23.3l0.2-0.9h0.9l-0.2,0.9H120.1z"/>
	<path fill="#58595B" d="M125.2,30.1l0.6-3.3c0-0.1,0-0.3,0.1-0.4c0-0.1,0-0.3,0-0.4c0-0.3-0.1-0.5-0.2-0.6
		c-0.1-0.2-0.4-0.2-0.7-0.2c-0.2,0-0.4,0-0.6,0.1c-0.2,0.1-0.4,0.2-0.5,0.4c-0.2,0.2-0.3,0.4-0.4,0.6c-0.1,0.2-0.2,0.5-0.2,0.8
		l-0.6,3.1h-0.9l0.9-4.4c0-0.1,0-0.2,0.1-0.4c0-0.1,0-0.3,0.1-0.4c0-0.1,0-0.2,0-0.3c0-0.1,0-0.1,0-0.2h0.9c0,0,0,0.1,0,0.1
		c0,0.1,0,0.2,0,0.3c0,0.1,0,0.2,0,0.3c0,0.1,0,0.2,0,0.3h0c0.1-0.2,0.2-0.3,0.4-0.4c0.1-0.1,0.3-0.2,0.4-0.3
		c0.1-0.1,0.3-0.2,0.5-0.2c0.2,0,0.4-0.1,0.6-0.1c0.5,0,0.9,0.1,1.1,0.4c0.3,0.3,0.4,0.6,0.4,1.1c0,0.1,0,0.3,0,0.4
		c0,0.2,0,0.3-0.1,0.4l-0.7,3.3H125.2z"/>
	<path fill="#58595B" d="M130.3,29.4c0.2,0,0.4,0,0.5-0.1c0.2-0.1,0.3-0.1,0.4-0.2c0.1-0.1,0.2-0.2,0.3-0.4c0.1-0.1,0.2-0.3,0.2-0.5
		l0.8,0.3c-0.1,0.3-0.2,0.5-0.4,0.7c-0.1,0.2-0.3,0.4-0.5,0.5c-0.2,0.1-0.4,0.3-0.6,0.3c-0.2,0.1-0.5,0.1-0.8,0.1
		c-0.4,0-0.7-0.1-0.9-0.2c-0.3-0.1-0.5-0.3-0.6-0.4c-0.2-0.2-0.3-0.4-0.4-0.7s-0.1-0.5-0.1-0.9c0-0.1,0-0.3,0-0.4
		c0-0.2,0-0.3,0.1-0.5c0.1-0.4,0.2-0.7,0.3-1c0.1-0.3,0.3-0.5,0.4-0.7c0.1-0.2,0.3-0.4,0.5-0.5c0.2-0.1,0.3-0.2,0.5-0.3
		c0.2-0.1,0.4-0.1,0.5-0.2c0.2,0,0.4,0,0.6,0c0.3,0,0.6,0,0.8,0.1c0.2,0.1,0.4,0.2,0.6,0.3c0.2,0.1,0.3,0.3,0.4,0.5
		c0.1,0.2,0.1,0.4,0.2,0.7l-0.9,0.1c0-0.2,0-0.3-0.1-0.4c0-0.1-0.1-0.2-0.2-0.3c-0.1-0.1-0.2-0.2-0.3-0.2c-0.1-0.1-0.3-0.1-0.4-0.1
		c-0.2,0-0.4,0-0.6,0.1c-0.2,0.1-0.4,0.2-0.5,0.3c-0.1,0.2-0.3,0.4-0.4,0.6c-0.1,0.2-0.2,0.6-0.3,0.9c0,0.2-0.1,0.3-0.1,0.5
		c0,0.2,0,0.3,0,0.5c0,0.4,0.1,0.8,0.3,1C129.6,29.3,129.9,29.4,130.3,29.4z"/>
	<path fill="#58595B" d="M135,27.5c0,0.1,0,0.2,0,0.3c0,0.1,0,0.2,0,0.3c0,0.5,0.1,0.8,0.3,1c0.2,0.2,0.6,0.4,1,0.4
		c0.2,0,0.4,0,0.5-0.1c0.2,0,0.3-0.1,0.4-0.2c0.1-0.1,0.2-0.2,0.3-0.3c0.1-0.1,0.2-0.2,0.2-0.4l0.7,0.3c-0.1,0.2-0.2,0.3-0.3,0.5
		c-0.1,0.2-0.3,0.3-0.5,0.4c-0.2,0.1-0.4,0.2-0.7,0.3c-0.3,0.1-0.6,0.1-0.9,0.1c-0.3,0-0.6,0-0.9-0.1c-0.3-0.1-0.5-0.2-0.7-0.4
		c-0.2-0.2-0.3-0.4-0.4-0.7c-0.1-0.3-0.1-0.6-0.1-0.9c0-0.5,0.1-1,0.2-1.5c0.1-0.4,0.3-0.8,0.6-1.1c0.3-0.3,0.6-0.6,0.9-0.7
		c0.4-0.2,0.7-0.3,1.1-0.3c0.4,0,0.7,0,1,0.1c0.3,0.1,0.5,0.2,0.7,0.4c0.2,0.2,0.3,0.4,0.4,0.6c0.1,0.2,0.1,0.5,0.1,0.8
		c0,0.1,0,0.2,0,0.2c0,0.1,0,0.2,0,0.3c0,0.1,0,0.2,0,0.3c0,0.1,0,0.2-0.1,0.3H135z M138.2,26.8c0-0.1,0-0.1,0-0.2
		c0-0.1,0-0.1,0-0.2c0-0.2,0-0.4-0.1-0.6c-0.1-0.2-0.1-0.3-0.3-0.4c-0.1-0.1-0.2-0.2-0.4-0.2c-0.2-0.1-0.3-0.1-0.5-0.1
		c-0.2,0-0.3,0-0.5,0.1c-0.2,0-0.4,0.1-0.5,0.3c-0.2,0.1-0.3,0.3-0.5,0.5c-0.1,0.2-0.2,0.5-0.3,0.8H138.2z"/>
	<path fill="#58595B" d="M143.7,30.1l0.2-0.8h1.8l1.1-5.5l-1.9,1.1l0.2-0.9l1.9-1.2h0.9l-1.3,6.4h1.8l-0.2,0.8H143.7z"/>
	<path fill="#58595B" d="M154.4,26.6c-0.2,0.3-0.5,0.6-0.8,0.8c-0.3,0.2-0.6,0.3-1,0.3c-0.3,0-0.6-0.1-0.9-0.2
		c-0.3-0.1-0.5-0.3-0.6-0.5c-0.2-0.2-0.3-0.4-0.4-0.7c-0.1-0.2-0.1-0.5-0.1-0.8c0-0.4,0.1-0.8,0.2-1.1c0.1-0.3,0.3-0.6,0.5-0.9
		c0.2-0.3,0.5-0.5,0.8-0.6c0.3-0.1,0.7-0.2,1.1-0.2c0.3,0,0.6,0.1,0.9,0.2c0.3,0.1,0.5,0.3,0.7,0.5c0.2,0.2,0.3,0.5,0.4,0.8
		c0.1,0.3,0.2,0.6,0.2,1c0,0.1,0,0.2,0,0.3s0,0.2,0,0.4s0,0.3,0,0.4c0,0.1,0,0.3-0.1,0.4c-0.1,0.6-0.3,1.2-0.5,1.6
		c-0.2,0.5-0.5,0.8-0.7,1.1c-0.3,0.3-0.6,0.5-0.9,0.6c-0.3,0.1-0.7,0.2-1,0.2c-0.5,0-1-0.1-1.3-0.4c-0.3-0.2-0.5-0.6-0.7-1.1
		l0.8-0.2c0.1,0.3,0.2,0.5,0.4,0.7c0.2,0.2,0.5,0.2,0.8,0.2c0.3,0,0.5-0.1,0.8-0.2c0.2-0.1,0.4-0.3,0.6-0.6c0.2-0.2,0.4-0.5,0.5-0.9
		C154.2,27.4,154.3,27,154.4,26.6z M154.6,24.8c0-0.2,0-0.4-0.1-0.5c-0.1-0.2-0.1-0.3-0.3-0.4c-0.1-0.1-0.2-0.2-0.4-0.3
		c-0.2-0.1-0.3-0.1-0.5-0.1c-0.2,0-0.5,0-0.7,0.1c-0.2,0.1-0.4,0.2-0.5,0.4c-0.2,0.2-0.3,0.4-0.4,0.7c-0.1,0.3-0.1,0.6-0.1,0.9
		c0,0.2,0,0.4,0.1,0.6c0.1,0.2,0.1,0.3,0.2,0.4c0.1,0.1,0.2,0.2,0.4,0.2c0.1,0.1,0.3,0.1,0.5,0.1c0.2,0,0.3,0,0.5-0.1
		c0.2-0.1,0.4-0.1,0.5-0.3c0.2-0.1,0.3-0.3,0.4-0.5c0.1-0.2,0.2-0.4,0.3-0.6C154.5,25.2,154.6,25,154.6,24.8z"/>
	<path fill="#58595B" d="M156.1,30.1l0.1-0.7c0.2-0.3,0.4-0.6,0.6-0.9c0.2-0.3,0.5-0.5,0.7-0.7s0.5-0.4,0.8-0.6
		c0.3-0.2,0.5-0.3,0.8-0.5c0.2-0.2,0.5-0.3,0.7-0.5c0.2-0.2,0.4-0.3,0.6-0.5c0.2-0.2,0.3-0.4,0.4-0.6c0.1-0.2,0.1-0.4,0.1-0.7
		c0-0.2,0-0.3-0.1-0.5c-0.1-0.1-0.1-0.3-0.2-0.4c-0.1-0.1-0.2-0.2-0.4-0.2c-0.1-0.1-0.3-0.1-0.5-0.1c-0.4,0-0.7,0.1-1,0.3
		c-0.3,0.2-0.5,0.5-0.6,0.9l-0.9-0.2c0.1-0.3,0.2-0.5,0.3-0.7c0.1-0.2,0.3-0.4,0.5-0.6c0.2-0.2,0.4-0.3,0.7-0.4s0.6-0.1,0.9-0.1
		c0.3,0,0.6,0,0.8,0.1c0.3,0.1,0.5,0.2,0.7,0.4c0.2,0.2,0.3,0.3,0.4,0.6c0.1,0.2,0.2,0.5,0.2,0.7c0,0.3,0,0.6-0.2,0.8
		c-0.1,0.2-0.2,0.5-0.4,0.7c-0.2,0.2-0.4,0.4-0.6,0.6c-0.2,0.2-0.5,0.4-0.7,0.5c-0.2,0.2-0.5,0.3-0.8,0.5c-0.3,0.2-0.5,0.3-0.7,0.5
		c-0.2,0.2-0.5,0.3-0.7,0.5c-0.2,0.2-0.4,0.4-0.5,0.6h3.7l-0.1,0.8H156.1z"/>
	<path fill="#58595B" d="M167.1,26.6c-0.2,0.3-0.5,0.6-0.8,0.8c-0.3,0.2-0.6,0.3-1,0.3c-0.3,0-0.6-0.1-0.9-0.2
		c-0.3-0.1-0.5-0.3-0.6-0.5c-0.2-0.2-0.3-0.4-0.4-0.7c-0.1-0.2-0.1-0.5-0.1-0.8c0-0.4,0.1-0.8,0.2-1.1c0.1-0.3,0.3-0.6,0.5-0.9
		c0.2-0.3,0.5-0.5,0.8-0.6c0.3-0.1,0.7-0.2,1.1-0.2c0.3,0,0.6,0.1,0.9,0.2c0.3,0.1,0.5,0.3,0.7,0.5c0.2,0.2,0.3,0.5,0.4,0.8
		c0.1,0.3,0.2,0.6,0.2,1c0,0.1,0,0.2,0,0.3c0,0.1,0,0.2,0,0.4c0,0.1,0,0.3,0,0.4c0,0.1,0,0.3-0.1,0.4c-0.1,0.6-0.3,1.2-0.5,1.6
		c-0.2,0.5-0.5,0.8-0.7,1.1c-0.3,0.3-0.6,0.5-0.9,0.6c-0.3,0.1-0.7,0.2-1,0.2c-0.5,0-1-0.1-1.3-0.4c-0.3-0.2-0.5-0.6-0.7-1.1
		l0.8-0.2c0.1,0.3,0.2,0.5,0.4,0.7c0.2,0.2,0.5,0.2,0.8,0.2c0.3,0,0.5-0.1,0.8-0.2c0.2-0.1,0.4-0.3,0.6-0.6c0.2-0.2,0.4-0.5,0.5-0.9
		C166.9,27.4,167.1,27,167.1,26.6z M167.3,24.8c0-0.2,0-0.4-0.1-0.5c-0.1-0.2-0.1-0.3-0.3-0.4c-0.1-0.1-0.2-0.2-0.4-0.3
		c-0.2-0.1-0.3-0.1-0.5-0.1c-0.2,0-0.5,0-0.7,0.1c-0.2,0.1-0.4,0.2-0.5,0.4c-0.2,0.2-0.3,0.4-0.4,0.7c-0.1,0.3-0.1,0.6-0.1,0.9
		c0,0.2,0,0.4,0.1,0.6c0.1,0.2,0.1,0.3,0.2,0.4c0.1,0.1,0.2,0.2,0.4,0.2c0.1,0.1,0.3,0.1,0.5,0.1c0.2,0,0.3,0,0.5-0.1
		c0.2-0.1,0.4-0.1,0.5-0.3c0.2-0.1,0.3-0.3,0.4-0.5c0.1-0.2,0.2-0.4,0.3-0.6C167.3,25.2,167.3,25,167.3,24.8z"/>
</g>
</svg>
