<?xml version="1.0" encoding="utf-8"?>
<!-- Generator: Adobe Illustrator 18.0.0, SVG Export Plug-In . SVG Version: 6.00 Build 0)  -->
<!DOCTYPE svg PUBLIC "-//W3C//DTD SVG 1.1//EN" "http://www.w3.org/Graphics/SVG/1.1/DTD/svg11.dtd">
<svg version="1.1" id="Layer_1" xmlns="http://www.w3.org/2000/svg" xmlns:xlink="http://www.w3.org/1999/xlink" x="0px" y="0px"
	 viewBox="31.3 11.8 138 24" enable-background="new 31.3 11.8 138 24" xml:space="preserve">
<g>
	<path fill="#58595B" d="M133.9,33.4c-0.1,0.1-0.1,0.2-0.2,0.4c-0.1,0.1-0.2,0.2-0.2,0.3c-0.1,0.1-0.2,0.1-0.3,0.2
		c-0.1,0-0.3,0.1-0.4,0.1c-0.4,0-0.8-0.2-1-0.5c-0.2-0.3-0.3-0.8-0.3-1.4c0-0.6,0.1-1.1,0.4-1.5c0.2-0.3,0.6-0.5,1-0.5
		c0.1,0,0.3,0,0.4,0.1c0.1,0,0.2,0.1,0.3,0.2c0.1,0.1,0.2,0.2,0.2,0.3c0.1,0.1,0.1,0.2,0.2,0.3h0c0,0,0-0.1,0-0.2c0-0.1,0-0.1,0-0.2
		c0-0.1,0-0.1,0.1-0.2c0-0.1,0-0.1,0.1-0.2h0.6c0,0.1-0.1,0.2-0.1,0.4c0,0.1-0.1,0.3-0.1,0.5c0,0.2-0.1,0.3-0.1,0.5
		c0,0.2-0.1,0.3-0.1,0.4c0,0.2,0,0.5,0,0.6c0,0.2,0.1,0.4,0.1,0.5c0,0.2,0.1,0.3,0.1,0.4s0.1,0.2,0.1,0.3h-0.6c0-0.1,0-0.1-0.1-0.2
		c0-0.1,0-0.1-0.1-0.2c0-0.1,0-0.1,0-0.2C133.9,33.5,133.9,33.4,133.9,33.4L133.9,33.4L133.9,33.4z M132.1,32.4c0,0.3,0,0.5,0,0.7
		c0,0.2,0.1,0.3,0.1,0.5c0.1,0.1,0.1,0.2,0.2,0.3c0.1,0.1,0.2,0.1,0.4,0.1c0.1,0,0.2,0,0.3-0.1c0.1-0.1,0.2-0.1,0.3-0.3
		c0.1-0.1,0.2-0.3,0.2-0.5c0.1-0.2,0.1-0.4,0.1-0.6c0-0.2-0.1-0.4-0.1-0.6c0-0.2-0.1-0.3-0.2-0.5c-0.1-0.1-0.2-0.2-0.3-0.3
		c-0.1-0.1-0.2-0.1-0.4-0.1s-0.3,0-0.4,0.1c-0.1,0-0.2,0.1-0.3,0.3c-0.1,0.1-0.1,0.3-0.2,0.5C132.1,31.9,132.1,32.1,132.1,32.4z"/>
	<path fill="#58595B" d="M138.7,34.3c-0.1,0-0.2,0-0.3,0c-0.1,0-0.2-0.1-0.2-0.1c-0.1-0.1-0.1-0.2-0.1-0.3c0-0.1,0-0.2,0-0.4v-2.5
		h-1.3v0.2c0,0.3,0,0.6,0,0.9c0,0.3,0,0.6-0.1,0.8c0,0.3-0.1,0.5-0.1,0.7c0,0.2-0.1,0.4-0.1,0.6h-0.6c0-0.2,0.1-0.4,0.1-0.6
		c0-0.2,0.1-0.5,0.1-0.7c0-0.3,0.1-0.5,0.1-0.8c0-0.3,0-0.6,0-0.9v-0.3c-0.1,0-0.2,0-0.3,0c-0.1,0-0.2,0-0.2,0c-0.1,0-0.1,0-0.2,0
		c-0.1,0-0.1,0-0.1,0v-0.5c0,0,0.1,0,0.1,0c0,0,0.1,0,0.2,0c0.1,0,0.1,0,0.2,0c0.1,0,0.1,0,0.2,0h3.4v0.4h-0.8v2.3
		c0,0.1,0,0.2,0,0.2c0,0.1,0,0.1,0.1,0.1c0,0,0.1,0.1,0.1,0.1c0,0,0.1,0,0.1,0c0,0,0,0,0.1,0c0,0,0,0,0.1,0c0,0,0,0,0.1,0
		c0,0,0,0,0.1,0v0.4c-0.1,0-0.1,0-0.2,0C138.9,34.3,138.8,34.3,138.7,34.3z"/>
	<path fill="#58595B" d="M143,32.4c0,0.6-0.1,1.1-0.4,1.4c-0.3,0.3-0.7,0.5-1.2,0.5c-0.2,0-0.5,0-0.7-0.1c-0.2-0.1-0.4-0.2-0.5-0.4
		c-0.1-0.2-0.2-0.4-0.3-0.6c-0.1-0.2-0.1-0.5-0.1-0.9c0-1.3,0.5-1.9,1.6-1.9c0.3,0,0.5,0,0.7,0.1c0.2,0.1,0.4,0.2,0.5,0.4
		c0.1,0.2,0.2,0.4,0.3,0.6C143,31.8,143,32,143,32.4z M142.4,32.4c0-0.3,0-0.5-0.1-0.7c0-0.2-0.1-0.3-0.2-0.5
		c-0.1-0.1-0.2-0.2-0.3-0.2c-0.1,0-0.2-0.1-0.4-0.1c-0.1,0-0.3,0-0.4,0.1c-0.1,0-0.2,0.1-0.3,0.2c-0.1,0.1-0.1,0.3-0.2,0.5
		s-0.1,0.4-0.1,0.7c0,0.3,0,0.5,0.1,0.7c0,0.2,0.1,0.3,0.2,0.5c0.1,0.1,0.2,0.2,0.3,0.2c0.1,0,0.2,0.1,0.4,0.1c0.1,0,0.3,0,0.4-0.1
		c0.1,0,0.2-0.1,0.3-0.2c0.1-0.1,0.1-0.3,0.2-0.5C142.4,32.9,142.4,32.6,142.4,32.4z M141.2,30v-0.1l0.2-1h0.7v0.1l-0.7,1
		C141.5,30,141.2,30,141.2,30z"/>
	<path fill="#58595B" d="M146.1,30.9c-0.1,0-0.2,0-0.3,0c-0.1,0-0.2,0-0.2,0c-0.1,0-0.1,0-0.2,0c-0.1,0-0.1,0-0.1,0v-0.5
		c0,0,0.1,0,0.1,0c0,0,0.1,0,0.2,0c0.1,0,0.1,0,0.2,0c0.1,0,0.1,0,0.2,0h1.9v0.4h-1v2.3c0,0.1,0,0.2,0,0.2c0,0.1,0,0.1,0.1,0.1
		c0,0,0.1,0.1,0.1,0.1c0,0,0.1,0,0.1,0c0,0,0,0,0.1,0c0,0,0,0,0.1,0c0,0,0,0,0.1,0s0,0,0.1,0v0.4c-0.1,0-0.1,0-0.2,0
		c-0.1,0-0.2,0-0.3,0c-0.1,0-0.2,0-0.3,0c-0.1,0-0.2-0.1-0.2-0.1c-0.1-0.1-0.1-0.2-0.1-0.3c0-0.1,0-0.2,0-0.4L146.1,30.9
		C146.1,30.9,146.1,30.9,146.1,30.9z"/>
	<path fill="#58595B" d="M151.1,32.4c0,0.6-0.1,1.1-0.4,1.4c-0.3,0.3-0.7,0.5-1.2,0.5c-0.2,0-0.5,0-0.7-0.1
		c-0.2-0.1-0.4-0.2-0.5-0.4c-0.1-0.2-0.2-0.4-0.3-0.6c-0.1-0.2-0.1-0.5-0.1-0.9c0-1.3,0.5-1.9,1.6-1.9c0.3,0,0.5,0,0.7,0.1
		c0.2,0.1,0.4,0.2,0.5,0.4c0.1,0.2,0.2,0.4,0.3,0.6C151.1,31.8,151.1,32,151.1,32.4z M150.5,32.4c0-0.3,0-0.5-0.1-0.7
		c0-0.2-0.1-0.3-0.2-0.5c-0.1-0.1-0.2-0.2-0.3-0.2c-0.1,0-0.2-0.1-0.4-0.1s-0.3,0-0.4,0.1c-0.1,0-0.2,0.1-0.3,0.2
		c-0.1,0.1-0.1,0.3-0.2,0.5s-0.1,0.4-0.1,0.7c0,0.3,0,0.5,0.1,0.7c0,0.2,0.1,0.3,0.2,0.5c0.1,0.1,0.2,0.2,0.3,0.2
		c0.1,0,0.2,0.1,0.4,0.1c0.1,0,0.3,0,0.4-0.1c0.1,0,0.2-0.1,0.3-0.2c0.1-0.1,0.1-0.3,0.2-0.5C150.5,32.9,150.5,32.6,150.5,32.4z"/>
	<path fill="#58595B" d="M153.7,34.2v-0.5h1.2V30l-1,0.8v-0.6l1.1-0.8h0.5v4.3h1.1v0.5H153.7z"/>
	<path fill="#58595B" d="M160.3,31.7c0,0.4,0,0.8-0.1,1.1s-0.2,0.6-0.3,0.8s-0.3,0.4-0.5,0.5c-0.2,0.1-0.4,0.2-0.7,0.2
		c-0.2,0-0.3,0-0.5-0.1c-0.1,0-0.3-0.1-0.4-0.2c-0.1-0.1-0.2-0.2-0.3-0.3c-0.1-0.1-0.1-0.3-0.2-0.5l0.6-0.1c0.1,0.2,0.2,0.4,0.3,0.5
		c0.1,0.1,0.3,0.1,0.5,0.1c0.2,0,0.3,0,0.4-0.1c0.1-0.1,0.2-0.2,0.3-0.4c0.1-0.2,0.2-0.4,0.2-0.6c0-0.2,0.1-0.5,0.1-0.8
		c0,0.1-0.1,0.2-0.2,0.3c-0.1,0.1-0.2,0.2-0.3,0.2c-0.1,0.1-0.2,0.1-0.3,0.1c-0.1,0-0.2,0-0.4,0c-0.2,0-0.4,0-0.6-0.1
		c-0.2-0.1-0.3-0.2-0.4-0.3c-0.1-0.1-0.2-0.3-0.3-0.5s-0.1-0.4-0.1-0.7c0-0.2,0-0.5,0.1-0.7c0.1-0.2,0.2-0.4,0.3-0.5
		c0.1-0.1,0.3-0.2,0.5-0.3c0.2-0.1,0.4-0.1,0.6-0.1c0.5,0,0.9,0.2,1.2,0.6C160.1,30.3,160.3,30.9,160.3,31.7z M159.6,31.1
		c0-0.2,0-0.3-0.1-0.5c0-0.2-0.1-0.3-0.2-0.4c-0.1-0.1-0.2-0.2-0.3-0.3c-0.1-0.1-0.2-0.1-0.4-0.1c-0.1,0-0.3,0-0.4,0.1
		c-0.1,0-0.2,0.1-0.3,0.2c-0.1,0.1-0.1,0.2-0.2,0.4c0,0.1-0.1,0.3-0.1,0.5c0,0.2,0,0.3,0.1,0.5c0,0.1,0.1,0.3,0.2,0.4
		c0.1,0.1,0.2,0.2,0.3,0.2c0.1,0.1,0.2,0.1,0.4,0.1c0.1,0,0.2,0,0.3-0.1c0.1,0,0.2-0.1,0.3-0.2c0.1-0.1,0.2-0.2,0.2-0.3
		C159.6,31.4,159.6,31.3,159.6,31.1z"/>
	<path fill="#58595B" d="M160.9,34.2v-0.4c0.1-0.3,0.2-0.5,0.4-0.7c0.2-0.2,0.3-0.4,0.5-0.5c0.2-0.2,0.4-0.3,0.5-0.5
		c0.2-0.1,0.3-0.3,0.5-0.4c0.1-0.1,0.3-0.3,0.3-0.4c0.1-0.2,0.1-0.3,0.1-0.5c0-0.1,0-0.3-0.1-0.4s-0.1-0.2-0.2-0.3
		c-0.1-0.1-0.2-0.1-0.3-0.2c-0.1,0-0.2,0-0.3,0c-0.1,0-0.2,0-0.3,0c-0.1,0-0.2,0.1-0.3,0.2c-0.1,0.1-0.1,0.2-0.2,0.3
		c0,0.1-0.1,0.2-0.1,0.4l-0.6-0.1c0-0.2,0.1-0.3,0.1-0.5c0.1-0.2,0.2-0.3,0.3-0.4c0.1-0.1,0.3-0.2,0.5-0.3c0.2-0.1,0.4-0.1,0.6-0.1
		c0.2,0,0.4,0,0.6,0.1c0.2,0.1,0.3,0.1,0.5,0.3c0.1,0.1,0.2,0.2,0.3,0.4c0.1,0.2,0.1,0.4,0.1,0.6c0,0.2,0,0.3-0.1,0.5
		c-0.1,0.1-0.1,0.3-0.2,0.4c-0.1,0.1-0.2,0.3-0.3,0.4c-0.1,0.1-0.2,0.2-0.4,0.4c-0.1,0.1-0.3,0.2-0.4,0.3c-0.1,0.1-0.3,0.2-0.4,0.3
		c-0.1,0.1-0.2,0.2-0.3,0.4c-0.1,0.1-0.2,0.2-0.2,0.4h2.4v0.5C163.9,34.2,160.9,34.2,160.9,34.2z"/>
	<path fill="#58595B" d="M167.7,31.7c0,0.4,0,0.8-0.1,1.1c-0.1,0.3-0.2,0.6-0.3,0.8s-0.3,0.4-0.5,0.5c-0.2,0.1-0.4,0.2-0.7,0.2
		c-0.2,0-0.3,0-0.5-0.1s-0.3-0.1-0.4-0.2s-0.2-0.2-0.3-0.3c-0.1-0.1-0.1-0.3-0.2-0.5l0.6-0.1c0.1,0.2,0.2,0.4,0.3,0.5
		c0.1,0.1,0.3,0.1,0.5,0.1c0.2,0,0.3,0,0.4-0.1c0.1-0.1,0.2-0.2,0.3-0.4c0.1-0.2,0.2-0.4,0.2-0.6c0-0.2,0.1-0.5,0.1-0.8
		c0,0.1-0.1,0.2-0.2,0.3c-0.1,0.1-0.2,0.2-0.3,0.2c-0.1,0.1-0.2,0.1-0.3,0.1c-0.1,0-0.2,0-0.4,0c-0.2,0-0.4,0-0.6-0.1
		c-0.2-0.1-0.3-0.2-0.4-0.3c-0.1-0.1-0.2-0.3-0.3-0.5c-0.1-0.2-0.1-0.4-0.1-0.7c0-0.2,0-0.5,0.1-0.7c0.1-0.2,0.2-0.4,0.3-0.5
		c0.1-0.1,0.3-0.2,0.5-0.3c0.2-0.1,0.4-0.1,0.6-0.1c0.5,0,0.9,0.2,1.2,0.6C167.5,30.3,167.7,30.9,167.7,31.7z M167,31.1
		c0-0.2,0-0.3-0.1-0.5s-0.1-0.3-0.2-0.4c-0.1-0.1-0.2-0.2-0.3-0.3c-0.1-0.1-0.2-0.1-0.4-0.1c-0.1,0-0.3,0-0.4,0.1
		c-0.1,0-0.2,0.1-0.3,0.2c-0.1,0.1-0.1,0.2-0.2,0.4c0,0.1-0.1,0.3-0.1,0.5c0,0.2,0,0.3,0.1,0.5s0.1,0.3,0.2,0.4
		c0.1,0.1,0.2,0.2,0.3,0.2c0.1,0.1,0.2,0.1,0.4,0.1c0.1,0,0.2,0,0.3-0.1c0.1,0,0.2-0.1,0.3-0.2c0.1-0.1,0.2-0.2,0.2-0.3
		C167,31.4,167,31.3,167,31.1z"/>
</g>
<rect x="101.8" y="13.2" fill="#C40D42" stroke="#C40D42" stroke-width="0.1722" width="0.3" height="13.2"/>
<g>
	<path d="M50.5,24.8v-7.2h5.2v0.8h-4.3v2.3h4v0.8h-4V24h4.5v0.8L50.5,24.8L50.5,24.8z"/>
	<path d="M61.7,24.8l-2.7-3.5L58,22v2.8h-0.9v-7.2H58v3.6l3.3-3.6h1.1l-2.9,3.1l3.3,4.1H61.7z"/>
	<path d="M63.2,24.1l2.5-6.5h1.1l2.5,6.5v0.7h-6.1L63.2,24.1z M68.3,24l-1.6-4.4c0-0.1-0.1-0.3-0.1-0.4c0-0.1-0.1-0.3-0.1-0.4
		s-0.1-0.2-0.1-0.3c0-0.1,0-0.1,0-0.2c0,0,0,0.1,0,0.2c0,0.1,0,0.2-0.1,0.3S66.1,19,66,19.2c0,0.1-0.1,0.3-0.1,0.4L64.2,24H68.3z"/>
	<path d="M76.6,21.1c0,0.6-0.1,1.1-0.2,1.5c-0.2,0.5-0.4,0.9-0.7,1.2c-0.3,0.3-0.6,0.6-1.1,0.8s-0.9,0.3-1.4,0.3
		c-0.6,0-1.1-0.1-1.5-0.3c-0.4-0.2-0.8-0.4-1.1-0.8s-0.5-0.7-0.6-1.2c-0.1-0.5-0.2-1-0.2-1.5c0-0.6,0.1-1.1,0.2-1.5
		c0.1-0.5,0.4-0.8,0.7-1.2c0.3-0.3,0.6-0.6,1.1-0.7c0.4-0.2,0.9-0.3,1.5-0.3c0.5,0,1,0.1,1.5,0.3c0.4,0.2,0.8,0.4,1.1,0.7
		s0.5,0.7,0.7,1.2C76.6,20.1,76.6,20.6,76.6,21.1z M75.7,21.1c0-0.4,0-0.8-0.2-1.2c-0.1-0.4-0.3-0.7-0.5-0.9
		c-0.2-0.3-0.5-0.4-0.8-0.6c-0.3-0.1-0.7-0.2-1-0.2c-0.4,0-0.8,0.1-1.1,0.2s-0.6,0.3-0.8,0.6c-0.2,0.3-0.4,0.6-0.5,0.9
		c-0.1,0.4-0.2,0.7-0.2,1.2c0,0.4,0,0.8,0.2,1.2c0.1,0.4,0.3,0.7,0.5,0.9c0.2,0.3,0.5,0.5,0.8,0.6c0.3,0.1,0.7,0.2,1.1,0.2
		c0.4,0,0.8-0.1,1.1-0.2c0.3-0.1,0.6-0.4,0.8-0.6c0.2-0.3,0.3-0.6,0.4-0.9C75.6,22,75.7,21.6,75.7,21.1z"/>
	<path d="M77.6,24.8V24l2.6-3l-2.5-2.6v-0.8h4.9v0.8h-3.8l2.2,2.3v0.6L78.6,24h4.3v0.8L77.6,24.8L77.6,24.8z"/>
	<path d="M84.1,24.8v-7.2h5.2v0.8H85v2.3h4v0.8h-4V24h4.5v0.8L84.1,24.8L84.1,24.8z"/>
	<path d="M90.8,24.8v-7.2h0.9v7.2H90.8z"/>
	<path d="M93.2,24.8V24l2.6-3l-2.5-2.6v-0.8h4.9v0.8h-3.8l2.2,2.3v0.6L94.2,24h4.3v0.8L93.2,24.8L93.2,24.8z"/>
</g>
<g>
	<path d="M111.2,24.8v-7.1h-4.1v7.1h-1v-8h6.2v8H111.2z"/>
	<path d="M119.9,24.8l-0.9-2.3h-3.5l-0.9,2.3h-1.1l3.1-8h1.2l3.1,8H119.9z M117.7,19c-0.1-0.1-0.1-0.3-0.2-0.5
		c0-0.2-0.1-0.3-0.1-0.4c0-0.1-0.1-0.2-0.1-0.3c0-0.1,0-0.1,0-0.2c0,0,0,0.1,0,0.2c0,0.1-0.1,0.2-0.1,0.3c0,0.1-0.1,0.3-0.1,0.4
		c0,0.2-0.1,0.3-0.2,0.5l-1,2.6h2.9L117.7,19z"/>
	<path d="M127.5,24.8v-7.1h-4.1v7.1h-1v-8h6.2v8H127.5z"/>
	<path d="M136.2,24.8l-0.9-2.3h-3.5l-0.9,2.3h-1.1l3.1-8h1.2l3.1,8H136.2z M134,19c-0.1-0.1-0.1-0.3-0.2-0.5c0-0.2-0.1-0.3-0.1-0.4
		c0-0.1-0.1-0.2-0.1-0.3c0-0.1,0-0.1,0-0.2c0,0,0,0.1,0,0.2c0,0.1-0.1,0.2-0.1,0.3s-0.1,0.3-0.1,0.4c0,0.2-0.1,0.3-0.2,0.5l-1,2.6
		h2.9L134,19z"/>
	<path d="M144.1,24.8H138V24l4.6-6.3h-4.2v-0.9h5.4v0.8l-4.6,6.3h4.9V24.8z"/>
	<path d="M150.9,24.8v-3.7h-4.1v3.7h-1v-8h1v3.4h4.1v-3.4h1v8C152,24.8,150.9,24.8,150.9,24.8z"/>
	<path d="M153.9,24.8v-0.9l2.9-3.3l-2.8-2.9v-0.9h5.4v0.9h-4.2l2.5,2.5v0.7l-2.7,3h4.7v0.9C159.7,24.8,153.9,24.8,153.9,24.8z"/>
	<path d="M166.6,24.8v-3.7h-4.1v3.7h-1v-8h1v3.4h4.1v-3.4h1v8C167.7,24.8,166.6,24.8,166.6,24.8z"/>
</g>
<polygon fill="#C40D42" stroke="#C40D42" stroke-width="0.1779" points="37.1,20.2 37.1,26.4 32.3,26.4 32.3,13.2 45.5,13.2 
	45.5,26.4 40.8,26.4 40.8,20.2 42.9,20.2 39,16.2 35,20.2 "/>
</svg>
