<?xml version="1.0" encoding="utf-8"?>
<!-- Generator: Adobe Illustrator 18.0.0, SVG Export Plug-In . SVG Version: 6.00 Build 0)  -->
<!DOCTYPE svg PUBLIC "-//W3C//DTD SVG 1.1//EN" "http://www.w3.org/Graphics/SVG/1.1/DTD/svg11.dtd">
<svg version="1.1" id="Layer_1" xmlns="http://www.w3.org/2000/svg" xmlns:xlink="http://www.w3.org/1999/xlink" x="0px" y="0px"
	 viewBox="46.5 7.7 106.7 33.7" enable-background="new 46.5 7.7 106.7 33.7" xml:space="preserve">
<rect x="71.4" y="22.2" fill="#C40D42" width="63.2" height="0.5"/>
<g>
	<path d="M79.3,18.6v-8.3h6v0.9h-4.9v2.7h4.6v0.9h-4.6v2.9h5.2v0.9H79.3z"/>
	<path d="M92.2,18.6l-3.1-4l-1,0.8v3.2h-1.1v-8.3H88v4.2l3.8-4.2h1.3l-3.4,3.6l3.8,4.7H92.2z"/>
	<path d="M94,17.7l2.9-7.5h1.2l2.9,7.5v0.8h-7V17.7z M99.8,17.6L98,12.5c-0.1-0.2-0.1-0.3-0.2-0.5c-0.1-0.2-0.1-0.3-0.2-0.4
		c0-0.1-0.1-0.3-0.1-0.3c0-0.1,0-0.2-0.1-0.2c0,0,0,0.1-0.1,0.2c0,0.1-0.1,0.2-0.1,0.3c0,0.1-0.1,0.3-0.2,0.4
		c-0.1,0.2-0.1,0.3-0.2,0.5l-1.9,5.1L99.8,17.6L99.8,17.6z"/>
	<path d="M109.4,14.4c0,0.7-0.1,1.2-0.3,1.8c-0.2,0.5-0.4,1-0.8,1.4c-0.3,0.4-0.8,0.7-1.2,0.9c-0.5,0.2-1,0.3-1.7,0.3
		c-0.7,0-1.2-0.1-1.7-0.3c-0.5-0.2-0.9-0.5-1.2-0.9c-0.3-0.4-0.6-0.8-0.7-1.4c-0.2-0.5-0.3-1.1-0.3-1.7c0-0.7,0.1-1.2,0.3-1.8
		s0.4-1,0.8-1.3c0.3-0.4,0.8-0.7,1.2-0.8c0.5-0.2,1-0.3,1.7-0.3s1.2,0.1,1.7,0.3c0.5,0.2,0.9,0.5,1.2,0.8s0.6,0.8,0.8,1.4
		C109.3,13.1,109.4,13.7,109.4,14.4z M108.3,14.4c0-0.5-0.1-0.9-0.2-1.4c-0.1-0.4-0.3-0.8-0.5-1c-0.3-0.3-0.5-0.5-0.9-0.7
		c-0.3-0.2-0.8-0.2-1.2-0.2c-0.5,0-0.9,0.1-1.2,0.2c-0.3,0.2-0.7,0.4-0.9,0.7s-0.4,0.6-0.5,1c-0.1,0.4-0.2,0.8-0.2,1.4
		s0.1,0.9,0.2,1.4c0.1,0.4,0.3,0.8,0.5,1.1c0.3,0.3,0.5,0.5,0.9,0.7c0.3,0.2,0.8,0.3,1.2,0.3c0.5,0,0.9-0.1,1.3-0.3
		c0.3-0.2,0.7-0.4,0.9-0.7c0.2-0.3,0.4-0.7,0.5-1.1C108.3,15.3,108.3,14.9,108.3,14.4z"/>
	<path d="M110.6,18.6v-0.9l3-3.4l-2.9-3v-0.9h5.6v0.9h-4.4l2.6,2.6v0.7l-2.7,3.1h4.9v0.9H110.6z"/>
	<path d="M118,18.6v-8.3h6v0.9h-4.9v2.7h4.6v0.9h-4.6v2.9h5.2v0.9H118z"/>
	<path d="M125.8,18.6v-8.3h1.1v8.3H125.8z"/>
	<path d="M128.5,18.6v-0.9l3-3.4l-2.9-3v-0.9h5.6v0.9h-4.4l2.6,2.6v0.7l-2.7,3.1h4.9v0.9H128.5z"/>
</g>
<g>
	<path d="M85.4,35.1v-8.4h-4.9v8.4h-1.2v-9.5h7.3v9.5C86.6,35.1,85.4,35.1,85.4,35.1z"/>
	<path d="M95.7,35.1l-1-2.8h-4.1l-1,2.8h-1.3l3.7-9.5h1.4l3.6,9.5C96.9,35.1,95.7,35.1,95.7,35.1z M93.1,28.2
		c-0.1-0.2-0.1-0.3-0.2-0.5c-0.1-0.2-0.1-0.3-0.2-0.5s-0.1-0.3-0.1-0.4c0-0.1-0.1-0.2-0.1-0.2c0,0,0,0.1-0.1,0.2
		c0,0.1-0.1,0.2-0.1,0.4c-0.1,0.2-0.1,0.3-0.2,0.5c-0.1,0.2-0.1,0.4-0.2,0.5l-1.2,3.1h3.4L93.1,28.2z"/>
	<path d="M104.6,35.1v-8.4h-4.9v8.4h-1.2v-9.5h7.3v9.5C105.8,35.1,104.6,35.1,104.6,35.1z"/>
	<path d="M114.9,35.1l-1-2.8h-4.1l-1,2.8h-1.3l3.7-9.5h1.4l3.6,9.5C116.2,35.1,114.9,35.1,114.9,35.1z M112.4,28.2
		c-0.1-0.2-0.1-0.3-0.2-0.5s-0.1-0.3-0.2-0.5s-0.1-0.3-0.1-0.4s-0.1-0.2-0.1-0.2c0,0,0,0.1-0.1,0.2c0,0.1-0.1,0.2-0.1,0.4
		c-0.1,0.2-0.1,0.3-0.2,0.5c-0.1,0.2-0.1,0.4-0.2,0.5l-1.2,3.1h3.4L112.4,28.2z"/>
	<path d="M124.3,35.1h-7.2v-1l5.5-7.5h-5v-1h6.4v0.9l-5.5,7.5h5.8V35.1z"/>
	<path d="M132.4,35.1v-4.4h-4.9v4.4h-1.2v-9.5h1.2v4h4.9v-4h1.2v9.5C133.6,35.1,132.4,35.1,132.4,35.1z"/>
	<path d="M135.9,35.1V34l3.4-3.9l-3.3-3.4v-1.1h6.4v1h-5l2.9,3v0.9l-3.1,3.6h5.6v1C142.8,35.1,135.9,35.1,135.9,35.1z"/>
	<path d="M151,35.1v-4.4h-4.9v4.4h-1.2v-9.5h1.2v4h4.9v-4h1.2v9.5C152.3,35.1,151,35.1,151,35.1z"/>
</g>
<polygon fill="#C40D42" stroke="#C40D42" stroke-width="0.1825" points="57.4,22.6 57.4,35.4 47.7,35.4 47.7,8.6 74.5,8.6 
	74.5,35.4 65,35.4 65,22.6 69.1,22.6 61.1,14.6 53.2,22.6 "/>
<g>
	<path fill="#58595B" d="M49.6,39.7c0,0.1-0.1,0.2-0.1,0.3c-0.1,0.1-0.1,0.1-0.2,0.2s-0.2,0.1-0.3,0.1c-0.1,0-0.2,0-0.3,0
		c-0.3,0-0.6-0.1-0.7-0.3c-0.2-0.2-0.2-0.6-0.2-1s0.1-0.8,0.3-1c0.2-0.2,0.4-0.3,0.8-0.3c0.1,0,0.2,0,0.3,0c0.1,0,0.2,0.1,0.3,0.1
		c0.1,0.1,0.1,0.1,0.2,0.2c0.1,0.1,0.1,0.2,0.1,0.3l0,0c0,0,0-0.1,0-0.1c0,0,0-0.1,0-0.2s0-0.1,0.1-0.2c0-0.1,0-0.1,0.1-0.2h0.4
		c0,0.1-0.1,0.2-0.1,0.3c0,0.1-0.1,0.2-0.1,0.3c0,0.1-0.1,0.2-0.1,0.3c0,0.1,0,0.2-0.1,0.3c0,0.2,0,0.3,0,0.5c0,0.1,0,0.3,0.1,0.4
		c0,0.1,0.1,0.2,0.1,0.3c0,0.1,0.1,0.2,0.1,0.2h-0.4c0,0,0-0.1-0.1-0.2c0-0.1,0-0.1,0-0.2C49.7,39.8,49.7,39.8,49.6,39.7
		C49.6,39.8,49.6,39.7,49.6,39.7L49.6,39.7z M48.2,39c0,0.2,0,0.3,0,0.5c0,0.1,0.1,0.2,0.1,0.3c0,0.1,0.1,0.2,0.2,0.2
		c0.1,0,0.2,0.1,0.3,0.1c0.1,0,0.2,0,0.3-0.1c0.1,0,0.2-0.1,0.2-0.2c0.1-0.1,0.1-0.2,0.2-0.3c0.1-0.1,0.1-0.3,0.1-0.4
		c0-0.1,0-0.3-0.1-0.4c0-0.1-0.1-0.2-0.1-0.3c-0.1-0.1-0.1-0.2-0.2-0.2C49,38,48.9,38,48.8,38s-0.2,0-0.3,0.1
		c-0.1,0-0.1,0.1-0.2,0.2c-0.1,0.1-0.1,0.2-0.1,0.3C48.3,38.6,48.2,38.8,48.2,39z"/>
	<path fill="#58595B" d="M53.1,40.3c-0.1,0-0.2,0-0.3,0c-0.1,0-0.1-0.1-0.2-0.1c0,0-0.1-0.1-0.1-0.2c0-0.1,0-0.2,0-0.3V38h-1v0.2
		c0,0.2,0,0.4,0,0.6c0,0.2,0,0.4-0.1,0.6c0,0.2,0,0.3-0.1,0.5c0,0.2-0.1,0.3-0.1,0.4h-0.4c0-0.1,0.1-0.3,0.1-0.4
		c0-0.2,0.1-0.3,0.1-0.5c0-0.2,0-0.4,0.1-0.6c0-0.2,0-0.4,0-0.6V38c-0.1,0-0.1,0-0.2,0s-0.1,0-0.2,0c-0.1,0-0.1,0-0.2,0
		c0,0-0.1,0-0.1,0v-0.3c0,0,0,0,0.1,0c0,0,0.1,0,0.1,0c0,0,0.1,0,0.1,0c0,0,0.1,0,0.1,0h2.5V38h-0.6v1.6c0,0.1,0,0.1,0,0.2
		c0,0,0,0.1,0,0.1c0,0,0,0,0.1,0.1c0,0,0.1,0,0.1,0h0c0,0,0,0,0.1,0s0,0,0.1,0c0,0,0,0,0,0v0.3c-0.1,0-0.1,0-0.2,0
		C53.3,40.3,53.2,40.3,53.1,40.3z"/>
	<path fill="#58595B" d="M56.4,39c0,0.4-0.1,0.8-0.3,1c-0.2,0.2-0.5,0.3-0.9,0.3c-0.2,0-0.3,0-0.5-0.1c-0.2-0.1-0.3-0.1-0.3-0.3
		c-0.1-0.1-0.2-0.3-0.2-0.4c-0.1-0.2-0.1-0.4-0.1-0.6c0-0.9,0.4-1.4,1.2-1.4c0.2,0,0.4,0,0.5,0.1c0.2,0.1,0.3,0.1,0.3,0.3
		c0.1,0.1,0.2,0.3,0.2,0.4C56.3,38.6,56.4,38.7,56.4,39z M55.9,39c0-0.2,0-0.4,0-0.5c0-0.1-0.1-0.3-0.1-0.3
		c-0.1-0.1-0.1-0.1-0.2-0.2c-0.1,0-0.2,0-0.3,0c-0.1,0-0.2,0-0.3,0.1s-0.2,0.1-0.2,0.2c-0.1,0.1-0.1,0.2-0.2,0.3
		c0,0.1-0.1,0.3-0.1,0.5c0,0.2,0,0.4,0.1,0.5c0,0.1,0.1,0.3,0.2,0.3c0.1,0.1,0.1,0.1,0.2,0.2c0.1,0,0.2,0.1,0.3,0.1
		c0.1,0,0.2,0,0.3-0.1c0.1,0,0.2-0.1,0.2-0.2c0.1-0.1,0.1-0.2,0.2-0.3C55.9,39.3,55.9,39.2,55.9,39z M55,37.4L55,37.4l0.2-0.8h0.5
		v0.1l-0.5,0.7H55z"/>
	<path fill="#58595B" d="M58.6,38c-0.1,0-0.1,0-0.2,0s-0.1,0-0.2,0c-0.1,0-0.1,0-0.2,0c0,0-0.1,0-0.1,0v-0.3c0,0,0,0,0.1,0
		c0,0,0.1,0,0.1,0c0,0,0.1,0,0.1,0s0.1,0,0.1,0h1.4V38h-0.7v1.6c0,0.1,0,0.1,0,0.2c0,0,0,0.1,0,0.1c0,0,0,0,0.1,0.1c0,0,0.1,0,0.1,0
		h0c0,0,0,0,0.1,0c0,0,0,0,0.1,0s0,0,0,0v0.3c-0.1,0-0.1,0-0.2,0s-0.1,0-0.2,0c-0.1,0-0.2,0-0.3,0c-0.1,0-0.1-0.1-0.2-0.1
		c0,0-0.1-0.1-0.1-0.2c0-0.1,0-0.2,0-0.3V38L58.6,38L58.6,38z"/>
	<path fill="#58595B" d="M62.3,39c0,0.4-0.1,0.8-0.3,1c-0.2,0.2-0.5,0.3-0.9,0.3c-0.2,0-0.3,0-0.5-0.1c-0.2-0.1-0.3-0.1-0.3-0.3
		c-0.1-0.1-0.2-0.3-0.2-0.4C60,39.4,60,39.2,60,39c0-0.9,0.4-1.4,1.2-1.4c0.2,0,0.4,0,0.5,0.1c0.2,0.1,0.3,0.1,0.3,0.3
		c0.1,0.1,0.2,0.3,0.2,0.4C62.3,38.6,62.3,38.7,62.3,39z M61.9,39c0-0.2,0-0.4,0-0.5c0-0.1-0.1-0.3-0.1-0.3
		c-0.1-0.1-0.1-0.1-0.2-0.2c-0.1,0-0.2,0-0.3,0c-0.1,0-0.2,0-0.3,0.1s-0.2,0.1-0.2,0.2c-0.1,0.1-0.1,0.2-0.2,0.3
		c0,0.1-0.1,0.3-0.1,0.5c0,0.2,0,0.4,0.1,0.5c0,0.1,0.1,0.3,0.2,0.3c0.1,0.1,0.1,0.1,0.2,0.2c0.1,0,0.2,0.1,0.3,0.1
		c0.1,0,0.2,0,0.3-0.1c0.1,0,0.2-0.1,0.2-0.2c0.1-0.1,0.1-0.2,0.2-0.3C61.9,39.3,61.9,39.2,61.9,39z"/>
	<path fill="#58595B" d="M64.3,40.3v-0.4h0.8v-2.6l-0.8,0.5v-0.4l0.8-0.5h0.4v3h0.8v0.4H64.3z"/>
	<path fill="#58595B" d="M69.1,38.5c0,0.3,0,0.6-0.1,0.8c-0.1,0.2-0.1,0.4-0.3,0.6c-0.1,0.2-0.2,0.3-0.4,0.3
		c-0.2,0.1-0.3,0.1-0.5,0.1c-0.1,0-0.3,0-0.3,0c-0.1,0-0.2-0.1-0.3-0.1c-0.1-0.1-0.2-0.1-0.2-0.2c-0.1-0.1-0.1-0.2-0.1-0.3l0.4-0.1
		c0,0.2,0.1,0.3,0.2,0.3c0.1,0.1,0.2,0.1,0.3,0.1s0.2,0,0.3-0.1c0.1-0.1,0.2-0.1,0.3-0.3c0.1-0.1,0.1-0.3,0.2-0.4
		c0-0.2,0.1-0.3,0.1-0.6c0,0.1-0.1,0.2-0.1,0.2c-0.1,0.1-0.1,0.1-0.2,0.2c-0.1,0-0.2,0.1-0.3,0.1s-0.2,0-0.3,0c-0.2,0-0.3,0-0.4-0.1
		s-0.2-0.1-0.3-0.2c-0.1-0.1-0.2-0.2-0.2-0.3c0-0.1-0.1-0.3-0.1-0.5s0-0.3,0.1-0.5c0.1-0.1,0.1-0.3,0.2-0.3c0.1-0.1,0.2-0.2,0.3-0.2
		c0.1-0.1,0.3-0.1,0.5-0.1c0.4,0,0.7,0.1,0.8,0.4C69,37.5,69.1,38,69.1,38.5z M68.6,38.1c0-0.1,0-0.3,0-0.3c0-0.1-0.1-0.2-0.1-0.3
		c-0.1-0.1-0.1-0.2-0.2-0.2c-0.1-0.1-0.2-0.1-0.3-0.1c-0.1,0-0.2,0-0.3,0.1c-0.1,0-0.2,0.1-0.2,0.2s-0.1,0.2-0.1,0.3
		c0,0.1,0,0.2,0,0.3c0,0.1,0,0.2,0,0.3s0.1,0.2,0.1,0.3c0.1,0.1,0.1,0.1,0.2,0.2c0.1,0,0.2,0.1,0.3,0.1c0.1,0,0.2,0,0.3,0
		c0.1,0,0.2-0.1,0.2-0.1c0.1-0.1,0.1-0.1,0.2-0.2C68.6,38.3,68.6,38.2,68.6,38.1z"/>
	<path fill="#58595B" d="M69.6,40.3V40c0.1-0.2,0.2-0.3,0.3-0.5c0.1-0.2,0.3-0.3,0.4-0.4c0.1-0.1,0.3-0.2,0.4-0.3s0.3-0.2,0.3-0.3
		c0.1-0.1,0.2-0.2,0.3-0.3c0.1-0.1,0.1-0.2,0.1-0.4c0-0.1,0-0.2,0-0.3c0-0.1-0.1-0.1-0.1-0.2c-0.1-0.1-0.1-0.1-0.2-0.1
		c-0.1,0-0.2,0-0.3,0s-0.2,0-0.3,0c-0.1,0-0.2,0.1-0.2,0.1c-0.1,0.1-0.1,0.1-0.2,0.2c0,0.1-0.1,0.2-0.1,0.3l-0.4,0
		c0-0.1,0.1-0.3,0.1-0.3c0.1-0.1,0.1-0.2,0.2-0.3s0.2-0.2,0.3-0.2s0.3-0.1,0.4-0.1s0.3,0,0.4,0.1s0.3,0.1,0.3,0.2
		c0.1,0.1,0.2,0.2,0.2,0.3c0.1,0.1,0.1,0.3,0.1,0.4c0,0.1,0,0.2-0.1,0.3s-0.1,0.2-0.2,0.3c-0.1,0.1-0.2,0.2-0.3,0.3
		c-0.1,0.1-0.2,0.2-0.3,0.3c-0.1,0.1-0.2,0.2-0.3,0.3c-0.1,0.1-0.2,0.2-0.3,0.3c-0.1,0.1-0.2,0.2-0.2,0.3c-0.1,0.1-0.1,0.2-0.2,0.3
		h1.8v0.4L69.6,40.3L69.6,40.3z"/>
	<path fill="#58595B" d="M74.6,38.5c0,0.3,0,0.6-0.1,0.8c-0.1,0.2-0.1,0.4-0.3,0.6c-0.1,0.2-0.2,0.3-0.4,0.3
		c-0.2,0.1-0.3,0.1-0.5,0.1c-0.1,0-0.3,0-0.3,0s-0.2-0.1-0.3-0.1s-0.2-0.1-0.2-0.2c-0.1-0.1-0.1-0.2-0.1-0.3l0.4-0.1
		c0,0.2,0.1,0.3,0.2,0.3c0.1,0.1,0.2,0.1,0.3,0.1s0.2,0,0.3-0.1c0.1-0.1,0.2-0.1,0.3-0.3s0.1-0.3,0.2-0.4c0-0.2,0.1-0.3,0.1-0.6
		c0,0.1-0.1,0.2-0.1,0.2c-0.1,0.1-0.1,0.1-0.2,0.2c-0.1,0-0.2,0.1-0.3,0.1c-0.1,0-0.2,0-0.3,0c-0.2,0-0.3,0-0.4-0.1
		c-0.1-0.1-0.2-0.1-0.3-0.2c-0.1-0.1-0.2-0.2-0.2-0.3c-0.1-0.1-0.1-0.3-0.1-0.5s0-0.3,0.1-0.5c0.1-0.1,0.1-0.3,0.2-0.3
		c0.1-0.1,0.2-0.2,0.3-0.2c0.1-0.1,0.3-0.1,0.5-0.1c0.4,0,0.7,0.1,0.8,0.4C74.5,37.5,74.6,38,74.6,38.5z M74.1,38.1
		c0-0.1,0-0.3,0-0.3c0-0.1-0.1-0.2-0.1-0.3c-0.1-0.1-0.1-0.2-0.2-0.2c-0.1-0.1-0.2-0.1-0.3-0.1c-0.1,0-0.2,0-0.3,0.1
		c-0.1,0-0.2,0.1-0.2,0.2c-0.1,0.1-0.1,0.2-0.1,0.3c0,0.1,0,0.2,0,0.3c0,0.1,0,0.2,0,0.3s0.1,0.2,0.1,0.3c0.1,0.1,0.1,0.1,0.2,0.2
		c0.1,0,0.2,0.1,0.3,0.1s0.2,0,0.3,0c0.1,0,0.2-0.1,0.2-0.1s0.1-0.1,0.2-0.2C74.1,38.3,74.1,38.2,74.1,38.1z"/>
</g>
</svg>
