<?xml version="1.0" encoding="utf-8"?>
<!-- Generator: Adobe Illustrator 18.0.0, SVG Export Plug-In . SVG Version: 6.00 Build 0)  -->
<!DOCTYPE svg PUBLIC "-//W3C//DTD SVG 1.1//EN" "http://www.w3.org/Graphics/SVG/1.1/DTD/svg11.dtd">
<svg version="1.1" id="Layer_1" xmlns="http://www.w3.org/2000/svg" xmlns:xlink="http://www.w3.org/1999/xlink" x="0px" y="0px"
	 viewBox="0 0 150 150" enable-background="new 0 0 150 150" xml:space="preserve">
<g>
	<path fill="#F98012" d="M121.3,122.7V77.6c0-9.4-3.8-14.3-11.3-14.3s-11.3,4.9-11.3,14.3v45.1H76.6V77.6c0-9.4-3.8-14.3-11.3-14.3
		S54,68.2,54,77.6v45.1H32.3V74.6c0-9.8,3.4-17.3,9.8-22.2c5.6-4.5,13.5-6.8,23.7-6.8s17.3,2.6,22.2,7.9c4.1-5.3,11.6-7.9,22.5-7.9
		c9.8,0,17.7,2.3,23.7,6.8c6.4,4.9,9.8,12.4,9.8,22.2v47.7h-22.5V122.7z"/>
	<path fill="#333333" d="M75.1,42.3l22.2-16.5l-0.4-1.1c-39.8,4.9-57.9,8.6-92,28.9l0.4,0.8h2.6c-0.4,3-0.8,9.8,0,20.3
		c-3.8,11.3,0,19.2,3.4,27.4c0.4-8.6,0.4-18.4-2.3-27.8C8.6,63.7,9,56.9,9,54.3l22.5,0.4c0,0,0,7.1,0.8,13.9
		c20.3,7.5,40.6,0,51.5-18C81.1,46.8,75.1,42.3,75.1,42.3z"/>
</g>
</svg>
