<?xml version="1.0" encoding="utf-8"?>
<!-- Generator: Adobe Illustrator 18.0.0, SVG Export Plug-In . SVG Version: 6.00 Build 0)  -->
<!DOCTYPE svg PUBLIC "-//W3C//DTD SVG 1.1//EN" "http://www.w3.org/Graphics/SVG/1.1/DTD/svg11.dtd">
<svg version="1.1" id="Layer_1" xmlns="http://www.w3.org/2000/svg" xmlns:xlink="http://www.w3.org/1999/xlink" x="0px" y="0px"
	 viewBox="0 0 150 150" enable-background="new 0 0 150 150" xml:space="preserve">
<g>
	<g>
		<g>
			
				<linearGradient id="SVGID_1_" gradientUnits="userSpaceOnUse" x1="247.6667" y1="76.4952" x2="247.6667" y2="-225.9545" gradientTransform="matrix(0.3 0 0 -0.3 0.7 46.3)">
				<stop  offset="0" style="stop-color:#FFE885"/>
				<stop  offset="1" style="stop-color:#D68C1A"/>
			</linearGradient>
			<circle fill="url(#SVGID_1_)" cx="75" cy="124.5" r="5.3"/>
			<g>
				<g>
					
						<linearGradient id="SVGID_2_" gradientUnits="userSpaceOnUse" x1="231.6722" y1="76.4952" x2="231.6722" y2="-225.9555" gradientTransform="matrix(-0.3 0 0 -0.3 179.6061 46.3)">
						<stop  offset="0" style="stop-color:#FFE885"/>
						<stop  offset="1" style="stop-color:#D68C1A"/>
					</linearGradient>
					<path fill="url(#SVGID_2_)" d="M143.6,40.6C109,34.1,75,44.2,75,44.2v82.4c0,0,33.5-10,67.8-3.7c1.2,0.2,2.4-0.7,2.4-2V42.6
						C145.2,41.7,144.5,40.8,143.6,40.6z"/>
					
						<linearGradient id="SVGID_3_" gradientUnits="userSpaceOnUse" x1="73.4008" y1="-194.4718" x2="324.8729" y2="-76.6865" gradientTransform="matrix(-0.3 0 0 -0.3 179.6061 46.3)">
						<stop  offset="0" style="stop-color:#FFE885"/>
						<stop  offset="1" style="stop-color:#FFAD2E"/>
					</linearGradient>
					<path fill="url(#SVGID_3_)" d="M143.6,39.1C109,32.5,75,42.6,75,42.6V125c0,0,33.5-10,67.8-3.7c1.2,0.2,2.4-0.7,2.4-2V41.1
						C145.2,40.1,144.5,39.2,143.6,39.1z"/>
				</g>
				
					<linearGradient id="SVGID_4_" gradientUnits="userSpaceOnUse" x1="550.6295" y1="-367.5715" x2="393.8072" y2="-158.8687" gradientTransform="matrix(0.3 0 0 -0.3 0.7 46.3)">
					<stop  offset="0" style="stop-color:#FFE885"/>
					<stop  offset="1" style="stop-color:#FFAD2E"/>
				</linearGradient>
				<path fill="url(#SVGID_4_)" d="M143.2,119l-0.3-80.1C108.5,32.7,75,42.6,75,42.6v80C104.5,111.2,143.2,119,143.2,119z"/>
				
					<linearGradient id="SVGID_5_" gradientUnits="userSpaceOnUse" x1="121.6879" y1="-102.2857" x2="471.5641" y2="-102.2857" gradientTransform="matrix(-0.3 0 0 -0.3 179.6061 46.3)">
					<stop  offset="0" style="stop-color:#DEE6E6"/>
					<stop  offset="1" style="stop-color:#6E898A"/>
				</linearGradient>
				<path fill="url(#SVGID_5_)" d="M75,42.5c0,0,24.4-20.3,66.8-5.9l0.3,80.6c0,0-40.3-7.4-67.1,5.5L75,42.5L75,42.5z"/>
				
					<linearGradient id="SVGID_6_" gradientUnits="userSpaceOnUse" x1="56.8883" y1="-98.7308" x2="399.6453" y2="-98.7308" gradientTransform="matrix(-0.3 0 0 -0.3 179.6061 46.3)">
					<stop  offset="0" style="stop-color:#FFFFFF"/>
					<stop  offset="1" style="stop-color:#A1C3C4"/>
				</linearGradient>
				<path fill="url(#SVGID_6_)" d="M75,42.4c0,0,23.2-21.6,63.7-9.4l0.3,80.5c0,0-38.4-5.2-64,9.1V42.4z"/>
				
					<linearGradient id="SVGID_7_" gradientUnits="userSpaceOnUse" x1="390.8332" y1="-91.5806" x2="273.8329" y2="-96.2923" gradientTransform="matrix(0.3 0 0 -0.3 0.7 46.3)">
					<stop  offset="0" style="stop-color:#FFFFFF"/>
					<stop  offset="1" style="stop-color:#C5E1E3"/>
				</linearGradient>
				<path fill="url(#SVGID_7_)" d="M75,42.3c0,0,21.9-22.9,60-13.1l0.3,80.5c0,0-36.2-3-60.4,12.8L75,42.3L75,42.3z"/>
				<g>
					<g>
						
							<linearGradient id="SVGID_8_" gradientUnits="userSpaceOnUse" x1="207.3907" y1="139.6567" x2="375.824" y2="-329.1292" gradientTransform="matrix(-0.3 0 0 -0.3 179.6061 46.3)">
							<stop  offset="0" style="stop-color:#DEE6E6"/>
							<stop  offset="1" style="stop-color:#6E898A"/>
						</linearGradient>
						<path fill="url(#SVGID_8_)" d="M80,45.6c11.3-8.3,25.6-11.6,39.5-11.4c3.1,0,6.6,0.4,9.7,0.7c-1.9-0.3-4.5-0.8-6.4-0.9
							c-1.1-0.1-3.8-0.3-4.9-0.3c-4.9-0.1-9.8,0.3-14.5,1.2C94.9,36.6,86.5,39.9,80,45.6L80,45.6z"/>
						
							<linearGradient id="SVGID_9_" gradientUnits="userSpaceOnUse" x1="198.3334" y1="136.4026" x2="366.7672" y2="-332.3848" gradientTransform="matrix(-0.3 0 0 -0.3 179.6061 46.3)">
							<stop  offset="0" style="stop-color:#DEE6E6"/>
							<stop  offset="1" style="stop-color:#6E898A"/>
						</linearGradient>
						<path fill="url(#SVGID_9_)" d="M80,54.2c11.3-8.2,25.7-11.5,39.5-11.4c3.1,0,6.6,0.3,9.7,0.5c-1.9-0.2-4.5-0.7-6.4-0.8
							c-1.1-0.1-3.8-0.2-4.9-0.3c-4.9,0-9.7,0.4-14.5,1.3C94.9,45.4,86.5,48.6,80,54.2L80,54.2z"/>
						
							<linearGradient id="SVGID_10_" gradientUnits="userSpaceOnUse" x1="189.2729" y1="133.148" x2="357.7064" y2="-335.6392" gradientTransform="matrix(-0.3 0 0 -0.3 179.6061 46.3)">
							<stop  offset="0" style="stop-color:#DEE6E6"/>
							<stop  offset="1" style="stop-color:#6E898A"/>
						</linearGradient>
						<path fill="url(#SVGID_10_)" d="M80,62.8c11.4-8.1,25.7-11.3,39.5-11.4c3.1-0.1,6.6,0.2,9.7,0.4c-1.9-0.2-4.5-0.6-6.4-0.7
							c-1.1,0-3.8-0.2-4.8-0.2c-4.8,0-9.8,0.5-14.5,1.4C94.9,54.1,86.6,57.3,80,62.8L80,62.8z"/>
						
							<linearGradient id="SVGID_11_" gradientUnits="userSpaceOnUse" x1="180.2154" y1="129.893" x2="348.6492" y2="-338.8942" gradientTransform="matrix(-0.3 0 0 -0.3 179.6061 46.3)">
							<stop  offset="0" style="stop-color:#DEE6E6"/>
							<stop  offset="1" style="stop-color:#6E898A"/>
						</linearGradient>
						<path fill="url(#SVGID_11_)" d="M80,71.5c11.4-8,25.7-11.2,39.5-11.5c3.1-0.1,6.5,0.1,9.7,0.2c-1.9-0.2-4.5-0.5-6.4-0.6
							c-6.5-0.3-13,0.1-19.3,1.4C95,62.9,86.6,65.9,80,71.5L80,71.5z"/>
						
							<linearGradient id="SVGID_12_" gradientUnits="userSpaceOnUse" x1="171.1568" y1="126.638" x2="339.5901" y2="-342.1487" gradientTransform="matrix(-0.3 0 0 -0.3 179.6061 46.3)">
							<stop  offset="0" style="stop-color:#DEE6E6"/>
							<stop  offset="1" style="stop-color:#6E898A"/>
						</linearGradient>
						<path fill="url(#SVGID_12_)" d="M80,80.1c12.4-8.5,27.9-11.5,42.7-11.6c2.1,0,4.3,0.1,6.4,0.1c-2.1-0.2-4.3-0.4-6.4-0.5
							c-6.4-0.2-13,0.3-19.3,1.6C95,71.6,86.6,74.6,80,80.1L80,80.1z"/>
						
							<linearGradient id="SVGID_13_" gradientUnits="userSpaceOnUse" x1="162.0981" y1="123.3841" x2="330.5317" y2="-345.4032" gradientTransform="matrix(-0.3 0 0 -0.3 179.6061 46.3)">
							<stop  offset="0" style="stop-color:#DEE6E6"/>
							<stop  offset="1" style="stop-color:#6E898A"/>
						</linearGradient>
						<path fill="url(#SVGID_13_)" d="M80,88.8c11.6-7.8,25.7-10.9,39.5-11.6c3.1-0.2,6.5-0.1,9.6-0.1c-2.1-0.2-4.3-0.3-6.4-0.4
							c-6.4-0.1-13,0.4-19.3,1.7C95.1,80.3,86.7,83.3,80,88.8L80,88.8z"/>
						
							<linearGradient id="SVGID_14_" gradientUnits="userSpaceOnUse" x1="153.0413" y1="120.1287" x2="321.4745" y2="-348.6575" gradientTransform="matrix(-0.3 0 0 -0.3 179.6061 46.3)">
							<stop  offset="0" style="stop-color:#DEE6E6"/>
							<stop  offset="1" style="stop-color:#6E898A"/>
						</linearGradient>
						<path fill="url(#SVGID_14_)" d="M80,97.4c12.5-8.3,27.9-11.2,42.7-11.8c2.1-0.1,4.3,0,6.4-0.1c-2.1-0.1-4.3-0.3-6.4-0.3
							C107.8,85.2,91.9,88.3,80,97.4L80,97.4z"/>
						
							<linearGradient id="SVGID_15_" gradientUnits="userSpaceOnUse" x1="143.981" y1="116.8739" x2="312.4146" y2="-351.9128" gradientTransform="matrix(-0.3 0 0 -0.3 179.6061 46.3)">
							<stop  offset="0" style="stop-color:#DEE6E6"/>
							<stop  offset="1" style="stop-color:#6E898A"/>
						</linearGradient>
						<path fill="url(#SVGID_15_)" d="M80,106c12.6-8.2,27.9-11.1,42.7-11.9c2.1-0.1,4.3-0.1,6.4-0.2c-2.1-0.1-4.3-0.2-6.4-0.2
							C107.9,93.9,92,97,80,106L80,106z"/>
						
							<linearGradient id="SVGID_16_" gradientUnits="userSpaceOnUse" x1="134.9239" y1="113.6195" x2="303.3572" y2="-355.1667" gradientTransform="matrix(-0.3 0 0 -0.3 179.6061 46.3)">
							<stop  offset="0" style="stop-color:#DEE6E6"/>
							<stop  offset="1" style="stop-color:#6E898A"/>
						</linearGradient>
						<path fill="url(#SVGID_16_)" d="M80,114.7c12.7-8,27.9-11,42.7-12c2.1-0.1,4.3-0.2,6.4-0.3c-2.1-0.1-4.3-0.1-6.4-0.1
							C107.9,102.7,92,105.8,80,114.7L80,114.7z"/>
					</g>
				</g>
			</g>
			<g>
				<g>
					
						<linearGradient id="SVGID_17_" gradientUnits="userSpaceOnUse" x1="345.4272" y1="76.4952" x2="345.4272" y2="-225.9555" gradientTransform="matrix(0.3 0 0 -0.3 -63.7326 46.3)">
						<stop  offset="0" style="stop-color:#FFE885"/>
						<stop  offset="1" style="stop-color:#D68C1A"/>
					</linearGradient>
					<path fill="url(#SVGID_17_)" d="M6.4,40.6C41,34.1,75,44.2,75,44.2v82.4c0,0-33.5-10-67.8-3.7c-1.2,0.2-2.4-0.7-2.4-2V42.6
						C4.8,41.7,5.5,40.8,6.4,40.6z"/>
					
						<linearGradient id="SVGID_18_" gradientUnits="userSpaceOnUse" x1="187.1559" y1="-194.4718" x2="438.6279" y2="-76.6865" gradientTransform="matrix(0.3 0 0 -0.3 -63.7326 46.3)">
						<stop  offset="0" style="stop-color:#FFE885"/>
						<stop  offset="1" style="stop-color:#FFAD2E"/>
					</linearGradient>
					<path fill="url(#SVGID_18_)" d="M6.4,39.1C41,32.5,75,42.6,75,42.6V125c0,0-33.5-10-67.8-3.7c-1.2,0.2-2.4-0.7-2.4-2V41.1
						C4.8,40.1,5.5,39.2,6.4,39.1z"/>
				</g>
				
					<linearGradient id="SVGID_19_" gradientUnits="userSpaceOnUse" x1="436.8744" y1="-367.5715" x2="280.0521" y2="-158.8687" gradientTransform="matrix(-0.3 0 0 -0.3 115.1735 46.3)">
					<stop  offset="0" style="stop-color:#FFE885"/>
					<stop  offset="1" style="stop-color:#FFAD2E"/>
				</linearGradient>
				<path fill="url(#SVGID_19_)" d="M6.8,119l0.3-80.1C41.5,32.7,75,42.6,75,42.6v80C45.5,111.2,6.8,119,6.8,119z"/>
				
					<linearGradient id="SVGID_20_" gradientUnits="userSpaceOnUse" x1="235.443" y1="-102.2857" x2="585.3192" y2="-102.2857" gradientTransform="matrix(0.3 0 0 -0.3 -63.7326 46.3)">
					<stop  offset="0" style="stop-color:#DEE6E6"/>
					<stop  offset="1" style="stop-color:#6E898A"/>
				</linearGradient>
				<path fill="url(#SVGID_20_)" d="M75,42.5c0,0-24.4-20.3-66.8-5.9l-0.3,80.6c0,0,40.3-7.4,67.1,5.5L75,42.5L75,42.5z"/>
				
					<linearGradient id="SVGID_21_" gradientUnits="userSpaceOnUse" x1="170.6435" y1="-98.7308" x2="513.4004" y2="-98.7308" gradientTransform="matrix(0.3 0 0 -0.3 -63.7326 46.3)">
					<stop  offset="0" style="stop-color:#FFFFFF"/>
					<stop  offset="1" style="stop-color:#A1C3C4"/>
				</linearGradient>
				<path fill="url(#SVGID_21_)" d="M75,42.4c0,0-23.2-21.6-63.7-9.4L11,113.5c0,0,38.4-5.2,64,9.1V42.4z"/>
				
					<linearGradient id="SVGID_22_" gradientUnits="userSpaceOnUse" x1="87.992" y1="-77.9493" x2="289.7979" y2="-111.7145" gradientTransform="matrix(0.3 0 0 -0.3 0.7 46.3)">
					<stop  offset="0" style="stop-color:#FFFFFF"/>
					<stop  offset="1" style="stop-color:#C5E1E3"/>
				</linearGradient>
				<path fill="url(#SVGID_22_)" d="M75,42.3c0,0-21.9-22.9-60-13.1l-0.3,80.5c0,0,36.2-3,60.4,12.8V42.3z"/>
				<g>
					<g>
						
							<linearGradient id="SVGID_23_" gradientUnits="userSpaceOnUse" x1="321.1458" y1="139.6567" x2="489.5791" y2="-329.1292" gradientTransform="matrix(0.3 0 0 -0.3 -63.7326 46.3)">
							<stop  offset="0" style="stop-color:#DEE6E6"/>
							<stop  offset="1" style="stop-color:#6E898A"/>
						</linearGradient>
						<path fill="url(#SVGID_23_)" d="M70,45.6c-11.3-8.3-25.6-11.6-39.5-11.4c-3.1,0-6.6,0.4-9.7,0.7c1.9-0.3,4.5-0.8,6.4-0.9
							c1.1-0.1,3.8-0.3,4.9-0.3c4.9-0.1,9.8,0.3,14.5,1.2C55.1,36.6,63.5,39.9,70,45.6L70,45.6z"/>
						
							<linearGradient id="SVGID_24_" gradientUnits="userSpaceOnUse" x1="312.0886" y1="136.4027" x2="480.5221" y2="-332.3848" gradientTransform="matrix(0.3 0 0 -0.3 -63.7326 46.3)">
							<stop  offset="0" style="stop-color:#DEE6E6"/>
							<stop  offset="1" style="stop-color:#6E898A"/>
						</linearGradient>
						<path fill="url(#SVGID_24_)" d="M70,54.2C58.7,46,44.4,42.7,30.6,42.8c-3.1,0-6.6,0.3-9.7,0.5c1.9-0.2,4.5-0.7,6.4-0.8
							c1.1-0.1,3.8-0.2,4.9-0.3c4.9,0,9.7,0.4,14.5,1.3C55.1,45.4,63.5,48.6,70,54.2L70,54.2z"/>
						
							<linearGradient id="SVGID_25_" gradientUnits="userSpaceOnUse" x1="303.0279" y1="133.1479" x2="471.4615" y2="-335.6393" gradientTransform="matrix(0.3 0 0 -0.3 -63.7326 46.3)">
							<stop  offset="0" style="stop-color:#DEE6E6"/>
							<stop  offset="1" style="stop-color:#6E898A"/>
						</linearGradient>
						<path fill="url(#SVGID_25_)" d="M70,62.8c-11.4-8.1-25.7-11.3-39.5-11.4c-3.1-0.1-6.6,0.2-9.7,0.4c1.9-0.2,4.5-0.6,6.4-0.7
							c1.1,0,3.8-0.2,4.8-0.2c4.8,0,9.8,0.5,14.5,1.4C55.1,54.1,63.4,57.3,70,62.8L70,62.8z"/>
						
							<linearGradient id="SVGID_26_" gradientUnits="userSpaceOnUse" x1="293.9704" y1="129.893" x2="462.4043" y2="-338.8942" gradientTransform="matrix(0.3 0 0 -0.3 -63.7326 46.3)">
							<stop  offset="0" style="stop-color:#DEE6E6"/>
							<stop  offset="1" style="stop-color:#6E898A"/>
						</linearGradient>
						<path fill="url(#SVGID_26_)" d="M70,71.5c-11.4-8-25.7-11.2-39.5-11.5c-3.1-0.1-6.5,0.1-9.7,0.2c1.9-0.2,4.5-0.5,6.4-0.6
							c6.5-0.3,13,0.1,19.3,1.4C55,62.9,63.4,65.9,70,71.5L70,71.5z"/>
						
							<linearGradient id="SVGID_27_" gradientUnits="userSpaceOnUse" x1="284.9117" y1="126.6381" x2="453.3452" y2="-342.1486" gradientTransform="matrix(0.3 0 0 -0.3 -63.7326 46.3)">
							<stop  offset="0" style="stop-color:#DEE6E6"/>
							<stop  offset="1" style="stop-color:#6E898A"/>
						</linearGradient>
						<path fill="url(#SVGID_27_)" d="M70,80.1c-12.4-8.5-27.9-11.5-42.7-11.6c-2.1,0-4.3,0.1-6.4,0.1c2.1-0.2,4.3-0.4,6.4-0.5
							c6.4-0.2,13,0.3,19.3,1.6C55,71.6,63.4,74.6,70,80.1L70,80.1z"/>
						
							<linearGradient id="SVGID_28_" gradientUnits="userSpaceOnUse" x1="275.853" y1="123.3841" x2="444.2868" y2="-345.4031" gradientTransform="matrix(0.3 0 0 -0.3 -63.7326 46.3)">
							<stop  offset="0" style="stop-color:#DEE6E6"/>
							<stop  offset="1" style="stop-color:#6E898A"/>
						</linearGradient>
						<path fill="url(#SVGID_28_)" d="M70,88.8C58.5,81,44.3,77.8,30.6,77.2c-3.1-0.2-6.5-0.1-9.6-0.1c2.1-0.2,4.3-0.3,6.4-0.4
							c6.4-0.1,13,0.4,19.3,1.7C54.9,80.3,63.3,83.3,70,88.8L70,88.8z"/>
						
							<linearGradient id="SVGID_29_" gradientUnits="userSpaceOnUse" x1="266.7951" y1="120.1283" x2="435.2284" y2="-348.658" gradientTransform="matrix(0.3 0 0 -0.3 -63.7326 46.3)">
							<stop  offset="0" style="stop-color:#DEE6E6"/>
							<stop  offset="1" style="stop-color:#6E898A"/>
						</linearGradient>
						<path fill="url(#SVGID_29_)" d="M70,97.4c-12.5-8.3-27.9-11.2-42.7-11.8c-2.1-0.1-4.3,0-6.4-0.1c2.1-0.1,4.3-0.3,6.4-0.3
							C42.2,85.2,58.1,88.3,70,97.4L70,97.4z"/>
						
							<linearGradient id="SVGID_30_" gradientUnits="userSpaceOnUse" x1="257.7361" y1="116.8739" x2="426.1696" y2="-351.9128" gradientTransform="matrix(0.3 0 0 -0.3 -63.7326 46.3)">
							<stop  offset="0" style="stop-color:#DEE6E6"/>
							<stop  offset="1" style="stop-color:#6E898A"/>
						</linearGradient>
						<path fill="url(#SVGID_30_)" d="M70,106c-12.6-8.2-27.9-11.1-42.7-11.9C25.2,94,23.1,94,20.9,94c2.1-0.1,4.3-0.2,6.4-0.2
							C42.1,93.9,58,97,70,106L70,106z"/>
						
							<linearGradient id="SVGID_31_" gradientUnits="userSpaceOnUse" x1="248.6777" y1="113.6191" x2="417.1111" y2="-355.167" gradientTransform="matrix(0.3 0 0 -0.3 -63.7326 46.3)">
							<stop  offset="0" style="stop-color:#DEE6E6"/>
							<stop  offset="1" style="stop-color:#6E898A"/>
						</linearGradient>
						<path fill="url(#SVGID_31_)" d="M70,114.7c-12.7-8-27.9-11-42.7-12c-2.1-0.1-4.3-0.2-6.4-0.3c2.1-0.1,4.3-0.1,6.4-0.1
							C42.1,102.7,58,105.8,70,114.7L70,114.7z"/>
					</g>
				</g>
			</g>
		</g>
		
			<linearGradient id="SVGID_32_" gradientUnits="userSpaceOnUse" x1="292.6722" y1="-155.273" x2="117.9703" y2="40.1562" gradientTransform="matrix(0.3 0 0 -0.3 0.7 46.3)">
			<stop  offset="0" style="stop-color:#9DC7C9;stop-opacity:0"/>
			<stop  offset="1" style="stop-color:#597273"/>
		</linearGradient>
		<path fill="url(#SVGID_32_)" d="M66.2,93.6L67.8,37c-2.6-1.8-6-3.8-10.2-5.5l-1.6,58l5.5-0.8L66.2,93.6z"/>
		
			<linearGradient id="SVGID_33_" gradientUnits="userSpaceOnUse" x1="125.978" y1="2.843193e-002" x2="400.4186" y2="-180.1837" gradientTransform="matrix(0.3 0 0 -0.3 0.7 46.3)">
			<stop  offset="0" style="stop-color:#DBB3E8"/>
			<stop  offset="1" style="stop-color:#53447D"/>
		</linearGradient>
		<path fill="url(#SVGID_33_)" d="M68,91.9V36.8c-2.7-1.8-6.2-3.7-10.3-5.4v56.3l5.5-0.8L68,91.9z"/>
	</g>
	<g>
		
			<linearGradient id="SVGID_34_" gradientUnits="userSpaceOnUse" x1="341.1855" y1="-199.5344" x2="341.1855" y2="-178.9707" gradientTransform="matrix(0.2531 0.161 0.161 -0.2531 26.8008 1.0387)">
			<stop  offset="1.120000e-002" style="stop-color:#34B5B1"/>
			<stop  offset="1" style="stop-color:#00647D"/>
		</linearGradient>
		<path fill="url(#SVGID_34_)" d="M85.2,100c1.3,0.8,1.7,1.7,1.7,1.7s-4.5,4.2-5.2,3.8c-0.7-0.4,1.2-6.3,1.2-6.3S83.9,99.1,85.2,100
			z"/>
		
			<linearGradient id="SVGID_35_" gradientUnits="userSpaceOnUse" x1="341.1843" y1="150.1389" x2="341.1843" y2="106.061" gradientTransform="matrix(0.2531 0.161 0.161 -0.2531 26.8008 1.0387)">
			<stop  offset="1.120000e-002" style="stop-color:#34B5B1"/>
			<stop  offset="1" style="stop-color:#00647D"/>
		</linearGradient>
		<path fill="url(#SVGID_35_)" d="M123.9,39.1L123.9,39.1c-0.9-0.6-1.2-1.8-0.6-2.8l9.7-15.2c0.6-0.9,1.8-1.2,2.8-0.6l0,0
			c0.9,0.6,1.2,1.8,0.6,2.8l-9.7,15.2C126.1,39.4,124.8,39.7,123.9,39.1z"/>
		
			<linearGradient id="SVGID_36_" gradientUnits="userSpaceOnUse" x1="341.1855" y1="142.8134" x2="341.1855" y2="90.5372" gradientTransform="matrix(0.2531 0.161 0.161 -0.2531 26.8008 1.0387)">
			<stop  offset="0" style="stop-color:#FFE885"/>
			<stop  offset="1" style="stop-color:#FFAD2E"/>
		</linearGradient>
		<path fill="url(#SVGID_36_)" d="M123.8,42.6l-3.1-2c-1.3-0.8-1.7-2.6-0.9-3.9l7.1-11.2c0.8-1.3,2.6-1.7,3.9-0.9l3.1,2
			c1.3,0.8,1.7,2.6,0.9,3.9l-7.1,11.2C126.9,43.1,125.2,43.5,123.8,42.6z"/>
		
			<linearGradient id="SVGID_37_" gradientUnits="userSpaceOnUse" x1="295.1182" y1="-46.3302" x2="359.6962" y2="-46.3302" gradientTransform="matrix(0.2531 0.161 0.161 -0.2531 26.8008 1.0387)">
			<stop  offset="1.120000e-002" style="stop-color:#34B5B1"/>
			<stop  offset="1" style="stop-color:#00647D"/>
		</linearGradient>
		<path fill="url(#SVGID_37_)" d="M122.8,30.5L86.2,88.2c-1.6,2.5-2.8,5.3-3.5,8.1l-0.9,3.5c-0.1,0.4,0.1,0.8,0.5,1
			c0.6,0.3,1.2,0.6,1.8,1c0.6,0.4,1.1,0.8,1.6,1.2c0.3,0.3,0.8,0.2,1.1,0l2.8-2.3c2.3-1.9,4.3-4.1,5.9-6.6l36.7-57.7L122.8,30.5
			L122.8,30.5z"/>
		
			<linearGradient id="SVGID_38_" gradientUnits="userSpaceOnUse" x1="211.7075" y1="-0.6896" x2="330.5813" y2="-100.1284" gradientTransform="matrix(0.2531 0.161 0.161 -0.2531 26.8008 1.0387)">
			<stop  offset="1.120000e-002" style="stop-color:#34B5B1"/>
			<stop  offset="1" style="stop-color:#00647D"/>
		</linearGradient>
		<path fill="url(#SVGID_38_)" d="M101.6,74.1c-2-1.3-3.9-2-5.2-2L86.2,88.2c-0.2,0.3-0.4,0.6-0.6,1c0,0,0,0,0.1,0
			c1.3,0.1,3.3,0.8,5.2,2c1.9,1.2,3.3,2.6,4,3.7c0,0,0,0,0,0c0.2-0.3,0.4-0.6,0.6-0.9L105.7,78C105.1,76.8,103.6,75.3,101.6,74.1z"
			/>
		
			<linearGradient id="SVGID_39_" gradientUnits="userSpaceOnUse" x1="308.0252" y1="-26.9067" x2="333.9744" y2="44.2814" gradientTransform="matrix(0.2531 0.161 0.161 -0.2531 26.8008 1.0387)">
			<stop  offset="1.120000e-002" style="stop-color:#34B5B1"/>
			<stop  offset="1" style="stop-color:#00647D"/>
		</linearGradient>
		<path fill="url(#SVGID_39_)" d="M129.1,31c-2.6-1.6-5.1-2.2-5.7-1.3L114,44.4c0.6-0.9,3.2-0.3,5.8,1.3c2.2,1.4,3.8,3.2,3.7,4.2
			l9.1-14.3C133.2,34.7,131.6,32.6,129.1,31z"/>
		
			<linearGradient id="SVGID_40_" gradientUnits="userSpaceOnUse" x1="311.3549" y1="-169.3873" x2="359.7037" y2="-159.62" gradientTransform="matrix(0.2531 0.161 0.161 -0.2531 26.8008 1.0387)">
			<stop  offset="0" style="stop-color:#DBB3E8"/>
			<stop  offset="1" style="stop-color:#71629C"/>
		</linearGradient>
		<path fill="url(#SVGID_40_)" d="M81.8,99.8c-0.1,0.4,0.1,0.8,0.5,1c0.6,0.3,1.2,0.6,1.8,1c0.6,0.4,1.1,0.8,1.6,1.2
			c0.3,0.3,0.8,0.2,1.1,0l2.8-2.3c1.6-1.3,3.1-2.8,4.4-4.5c-1.1-1.4-2.5-2.6-4.1-3.6c-1.6-1-3.3-1.7-5-2.2c-1,1.9-1.7,3.8-2.2,5.9
			L81.8,99.8z"/>
		
			<linearGradient id="SVGID_41_" gradientUnits="userSpaceOnUse" x1="319.8677" y1="-113.3035" x2="362.5057" y2="-113.3035" gradientTransform="matrix(0.2531 0.161 0.161 -0.2531 26.8008 1.0387)">
			<stop  offset="0" style="stop-color:#FFE885"/>
			<stop  offset="1" style="stop-color:#FFAD2E"/>
		</linearGradient>
		<path fill="url(#SVGID_41_)" d="M100.7,75.6c-3-1.9-5.9-2.6-6.6-1.5l-9.9,15.6c-0.3,0.4,0,1,0.5,1c1.3,0.1,3.3,0.8,5.2,2
			c1.9,1.2,3.3,2.6,4,3.7c0.2,0.4,0.8,0.4,1.1,0l9.9-15.5C105.5,79.9,103.7,77.5,100.7,75.6z"/>
		
			<linearGradient id="SVGID_42_" gradientUnits="userSpaceOnUse" x1="303.9089" y1="72.1409" x2="369.9384" y2="72.1409" gradientTransform="matrix(0.2531 0.161 0.161 -0.2531 26.8008 1.0387)">
			<stop  offset="0" style="stop-color:#DBB3E8"/>
			<stop  offset="1" style="stop-color:#71629C"/>
		</linearGradient>
		<path fill="url(#SVGID_42_)" d="M130.3,29.1c-2.6-1.6-5.1-2.2-5.8-1.2l-9.9,15.5c0.6-1,3.2-0.4,5.8,1.2c2.2,1.4,3.7,3.2,3.7,4.3
			l9.6-15.1C134.4,32.8,132.8,30.7,130.3,29.1z"/>
		
			<radialGradient id="SVGID_43_" cx="252.5298" cy="178.8756" r="151.3039" gradientTransform="matrix(0.2531 0.161 0.161 -0.2531 26.8008 1.0387)" gradientUnits="userSpaceOnUse">
			<stop  offset="0" style="stop-color:#FFFFFF"/>
			<stop  offset="0.942" style="stop-color:#FFFFFF;stop-opacity:0"/>
		</radialGradient>
		<path fill="url(#SVGID_43_)" d="M129.9,29.6c-2.3-1.5-4.6-1.9-5.1-1.1L118.1,39c0.5-0.8,2.8-0.3,5.1,1.1s3.7,3.3,3.2,4.1l6.7-10.5
			C133.6,32.9,132.2,31.1,129.9,29.6z"/>
		
			<linearGradient id="SVGID_44_" gradientUnits="userSpaceOnUse" x1="387.4991" y1="157.3637" x2="361.1269" y2="80.2006" gradientTransform="matrix(0.2531 0.161 0.161 -0.2531 26.8008 1.0387)">
			<stop  offset="0" style="stop-color:#DBB3E8"/>
			<stop  offset="1" style="stop-color:#71629C"/>
		</linearGradient>
		<path fill="url(#SVGID_44_)" d="M134.2,39l-2.9-1.8c-0.6-0.4-0.8-1.2-0.4-1.8l0,0c0.4-0.6,1.2-0.8,1.8-0.4l2.9,1.8
			c0.6,0.4,0.8,1.2,0.4,1.8l0,0C135.7,39.2,134.8,39.4,134.2,39z"/>
		
			<linearGradient id="SVGID_45_" gradientUnits="userSpaceOnUse" x1="393.1095" y1="69.3323" x2="357.4582" y2="-10.2724" gradientTransform="matrix(0.2531 0.161 0.161 -0.2531 26.8008 1.0387)">
			<stop  offset="0" style="stop-color:#DBB3E8"/>
			<stop  offset="1" style="stop-color:#71629C"/>
		</linearGradient>
		<path fill="url(#SVGID_45_)" d="M122.9,57c-0.2-0.4-0.5-0.7-0.9-1c-1.4-0.9-3.3-0.5-4.2,0.9c-0.9,1.4-0.5,3.3,0.9,4.2
			c0.4,0.3,0.8,0.4,1.3,0.4L122.9,57z"/>
		
			<linearGradient id="SVGID_46_" gradientUnits="userSpaceOnUse" x1="377.6529" y1="41.9368" x2="355.2461" y2="41.9368" gradientTransform="matrix(0.2531 0.161 0.161 -0.2531 26.8008 1.0387)">
			<stop  offset="0" style="stop-color:#DBB3E8"/>
			<stop  offset="1" style="stop-color:#71629C"/>
		</linearGradient>
		<path fill="url(#SVGID_46_)" d="M118.5,61.4l15.4-24.2c0.4-0.6,1.2-0.8,1.8-0.4l0,0c0.6,0.4,0.8,1.2,0.4,1.8l-15.4,24.2
			c-0.4,0.6-1.2,0.8-1.8,0.4l0,0C118.3,62.8,118.1,62,118.5,61.4z"/>
	</g>
</g>
</svg>
