<?xml version="1.0" encoding="utf-8"?>
<!-- Generator: Adobe Illustrator 18.0.0, SVG Export Plug-In . SVG Version: 6.00 Build 0)  -->
<!DOCTYPE svg PUBLIC "-//W3C//DTD SVG 1.1//EN" "http://www.w3.org/Graphics/SVG/1.1/DTD/svg11.dtd">
<svg version="1.1" id="Layer_1" xmlns="http://www.w3.org/2000/svg" xmlns:xlink="http://www.w3.org/1999/xlink" x="0px" y="0px"
	 viewBox="0 0 150 150" enable-background="new 0 0 150 150" xml:space="preserve">
<g>
	<ellipse transform="matrix(0.9895 -0.1449 0.1449 0.9895 -6.459 13.3105)" fill="#00B1FF" cx="88.2" cy="51" rx="29.5" ry="30.2"/>
	
		<linearGradient id="SVGID_1_" gradientUnits="userSpaceOnUse" x1="301.4137" y1="-138.249" x2="265.0357" y2="-171.9653" gradientTransform="matrix(4.345771e-002 0.2968 0.2968 -4.345771e-002 92.6343 -2.6738)">
		<stop  offset="0" style="stop-color:#FF5C6F"/>
		<stop  offset="1" style="stop-color:#661F27"/>
	</linearGradient>
	<path fill="url(#SVGID_1_)" d="M52.4,99.7L51.4,99c-1.9-1.4-2.3-4.1-0.9-6l10.6-14.2c1.4-1.9,4.1-2.3,6-0.9l0.9,0.7
		c1.9,1.4,2.3,4.1,0.9,6L58.4,98.8C57,100.7,54.3,101.1,52.4,99.7z"/>
	<g>
		
			<linearGradient id="SVGID_2_" gradientUnits="userSpaceOnUse" x1="291.7879" y1="-110.0696" x2="240.3259" y2="-162.4189" gradientTransform="matrix(4.345771e-002 0.2968 0.2968 -4.345771e-002 92.6343 -2.6738)">
			<stop  offset="0" style="stop-color:#DBB3E8"/>
			<stop  offset="1" style="stop-color:#71629C"/>
		</linearGradient>
		<path fill="url(#SVGID_2_)" d="M71.9,88l3.2-4.3c-2.8-1.1-5.6-2.6-8.1-4.5c-2.6-1.9-4.8-4.1-6.6-6.5l-3.2,4.3
			c-1.9,2.6-1.4,6.3,1.2,8.3l5.3,4C66.2,91.1,69.9,90.6,71.9,88z"/>
	</g>
	
		<linearGradient id="SVGID_3_" gradientUnits="userSpaceOnUse" x1="384.9812" y1="-183.1008" x2="334.4064" y2="-244.3231" gradientTransform="matrix(4.345771e-002 0.2968 0.2968 -4.345771e-002 92.6343 -2.6738)">
		<stop  offset="0" style="stop-color:#FFE885"/>
		<stop  offset="1" style="stop-color:#FFAD2E"/>
	</linearGradient>
	<path fill="url(#SVGID_3_)" d="M27.3,132.4L27.3,132.4c-4.1-3-4.9-8.8-1.9-12.9l19.4-26c3-4.1,8.8-4.9,12.9-1.9l0,0
		c4.1,3,4.9,8.8,1.9,12.9l-19.4,26C37.2,134.5,31.4,135.4,27.3,132.4z"/>
	
		<linearGradient id="SVGID_4_" gradientUnits="userSpaceOnUse" x1="361.2434" y1="18.2085" x2="372.7783" y2="-263.0591" gradientTransform="matrix(4.345771e-002 0.2968 0.2968 -4.345771e-002 92.6343 -2.6738)">
		<stop  offset="0" style="stop-color:#FFE885"/>
		<stop  offset="1" style="stop-color:#D69126"/>
	</linearGradient>
	<path fill="url(#SVGID_4_)" d="M35.4,133.8c1.9-0.5,3.6-1.7,4.8-3.3l19.4-26c1.2-1.7,1.8-3.6,1.8-5.6c-3.2-0.5-6.6,0.8-8.7,3.6
		l-16.3,21.9C34.2,127.2,34,130.8,35.4,133.8z"/>
	
		<linearGradient id="SVGID_5_" gradientUnits="userSpaceOnUse" x1="324.8247" y1="16.716" x2="336.3595" y2="-264.5515" gradientTransform="matrix(4.345771e-002 0.2968 0.2968 -4.345771e-002 92.6343 -2.6738)">
		<stop  offset="0" style="stop-color:#FFE885"/>
		<stop  offset="1" style="stop-color:#D69126"/>
	</linearGradient>
	<path fill="url(#SVGID_5_)" d="M47.1,98.3c1.7-2.3,2.2-5.2,1.5-7.8c-1.5,0.6-2.8,1.6-3.8,3l-19.4,26c-1,1.4-1.6,2.9-1.7,4.5
		c2.7-0.1,5.3-1.4,7-3.7L47.1,98.3z"/>
	
		<linearGradient id="SVGID_6_" gradientUnits="userSpaceOnUse" x1="53.3986" y1="129.4602" x2="53.3986" y2="39.2206" gradientTransform="matrix(0.1449 0.9895 -0.9895 0.1449 138.3445 -10.0734)">
		<stop  offset="1.120000e-002" style="stop-color:#34B5B1"/>
		<stop  offset="1" style="stop-color:#00647D"/>
	</linearGradient>
	<path fill="url(#SVGID_6_)" d="M119.7,71.4c11.4-15.4,8.3-37.1-7.1-48.6c-7.7-5.7-17-7.8-25.8-6.5L82.6,17
		c-8.8,1.3-17.1,5.9-22.8,13.6C48.4,46,51.6,67.7,66.9,79.1c7.7,5.7,17,7.8,25.8,6.5l4.2-0.6C105.7,83.7,114,79.1,119.7,71.4z
		 M74,74.8c-13.3-9.9-16-28.7-6.1-42c9.9-13.3,28.7-16,42-6.1c13.3,9.9,16,28.7,6.1,42C106.1,81.9,87.3,84.6,74,74.8z"/>
	
		<linearGradient id="SVGID_7_" gradientUnits="userSpaceOnUse" x1="53.3986" y1="103.3936" x2="53.3986" y2="-10.2672" gradientTransform="matrix(0.1449 0.9895 -0.9895 0.1449 138.3445 -10.0734)">
		<stop  offset="1.120000e-002" style="stop-color:#34B5B1"/>
		<stop  offset="1" style="stop-color:#00647D"/>
	</linearGradient>
	<path fill="url(#SVGID_7_)" d="M115.5,72c11.4-15.4,8.3-37.1-7.1-48.6s-37.1-8.3-48.6,7.1C48.4,46,51.6,67.7,66.9,79.1
		C82.3,90.6,104,87.4,115.5,72z M69.7,75.4c-13.3-9.9-16-28.7-6.1-42c9.9-13.3,28.7-16,42-6.1c13.3,9.9,16,28.7,6.1,42
		S83,85.3,69.7,75.4z"/>
	
		<radialGradient id="SVGID_8_" cx="329.2685" cy="-198.144" r="261.2359" gradientTransform="matrix(4.345771e-002 0.2968 0.2968 -4.345771e-002 92.6343 -2.6738)" gradientUnits="userSpaceOnUse">
		<stop  offset="0" style="stop-color:#FFFFFF"/>
		<stop  offset="1" style="stop-color:#FFFFFF;stop-opacity:0"/>
	</radialGradient>
	<circle fill="url(#SVGID_8_)" cx="87.7" cy="51.3" r="30"/>
	
		<radialGradient id="SVGID_9_" cx="56.3414" cy="76.7845" r="181.0261" gradientTransform="matrix(4.345771e-002 0.2968 0.2968 -4.345771e-002 92.6343 -2.6738)" gradientUnits="userSpaceOnUse">
		<stop  offset="0" style="stop-color:#FFFFFF"/>
		<stop  offset="1" style="stop-color:#FFFFFF;stop-opacity:0"/>
	</radialGradient>
	<circle fill="url(#SVGID_9_)" cx="87.7" cy="51.3" r="26.8"/>
</g>
</svg>
