<?xml version="1.0" encoding="utf-8"?>
<!-- Generator: Adobe Illustrator 18.0.0, SVG Export Plug-In . SVG Version: 6.00 Build 0)  -->
<!DOCTYPE svg PUBLIC "-//W3C//DTD SVG 1.1//EN" "http://www.w3.org/Graphics/SVG/1.1/DTD/svg11.dtd">
<svg version="1.1" id="Layer_1" xmlns="http://www.w3.org/2000/svg" xmlns:xlink="http://www.w3.org/1999/xlink" x="0px" y="0px"
	 viewBox="0 0 150 150" enable-background="new 0 0 150 150" xml:space="preserve">
<g>
	
		<linearGradient id="SVGID_1_" gradientUnits="userSpaceOnUse" x1="18.8917" y1="91.0295" x2="129.5912" y2="91.0295" gradientTransform="matrix(0.9999 -1.220000e-002 1.220000e-002 0.9999 0.937 -0.6608)">
		<stop  offset="0" style="stop-color:#752951"/>
		<stop  offset="1" style="stop-color:#4B2951"/>
	</linearGradient>
	<path fill="url(#SVGID_1_)" d="M20.7,70c0,0,0.8,32.9,3.1,34.2c2.2,1.3,19.2,17.9,55.3,14.9c37.3-3.1,51.8-18.9,51.8-18.9l0.4-41.3
		C131.3,58.9,19,72.2,20.7,70z"/>
	
		<linearGradient id="SVGID_2_" gradientUnits="userSpaceOnUse" x1="20.2407" y1="108.8973" x2="128.8216" y2="108.8973" gradientTransform="matrix(0.9999 -1.220000e-002 1.220000e-002 0.9999 0.937 -0.6608)">
		<stop  offset="0" style="stop-color:#752951"/>
		<stop  offset="1" style="stop-color:#4B2951"/>
	</linearGradient>
	<path opacity="0.5" fill="url(#SVGID_2_)" d="M79,114.2c-31.4,2.6-50.7-11.2-56.6-15.8c0.4,3.2,0.9,5.4,1.4,5.8
		c2.2,1.3,19.2,17.9,55.3,14.9c37.3-3.1,51.8-18.9,51.8-18.9l0.1-5.6C125.4,99.4,108.8,111.7,79,114.2z"/>
	<g>
		
			<linearGradient id="SVGID_3_" gradientUnits="userSpaceOnUse" x1="14.6302" y1="66.9587" x2="14.6538" y2="66.9587" gradientTransform="matrix(0.9999 -1.220000e-002 1.220000e-002 0.9999 0.937 -0.6608)">
			<stop  offset="0" style="stop-color:#00CEBF"/>
			<stop  offset="1" style="stop-color:#4B2951"/>
		</linearGradient>
		<path fill="url(#SVGID_3_)" d="M16.4,66.2c0-0.1,0-0.1,0-0.1C16.4,66.1,16.4,66.1,16.4,66.2z"/>
	</g>
	<g>
		<path fill="#FDAC32" d="M20.7,70.1C20.7,70,20.7,70,20.7,70.1C20.7,70,20.7,70.1,20.7,70.1z"/>
		<path fill="#FDAC32" d="M131.3,58.9c0,0-108.8,12.9-110.5,11.2c0,0.8,0.2,6.3,0.5,12.6c20.7,10.3,54.5,26.5,59.1,25.3
			c4.6-1.3,32.8-19.3,50.8-31.7L131.3,58.9z"/>
	</g>
	
		<linearGradient id="SVGID_4_" gradientUnits="userSpaceOnUse" x1="3.3201" y1="66.0176" x2="144.36" y2="66.0176" gradientTransform="matrix(0.9999 -1.220000e-002 1.220000e-002 0.9999 0.937 -0.6608)">
		<stop  offset="0" style="stop-color:#752951"/>
		<stop  offset="1" style="stop-color:#4B2951"/>
	</linearGradient>
	<path fill="url(#SVGID_4_)" d="M5.2,72.4c0,0,68.4,35.2,75.1,33.3c6.6-1.9,62.7-38.5,65.7-43c3.1-4.5-67.6-41-72-39.6
		C69.5,24.5,3.3,66.2,5.2,72.4z"/>
	
		<ellipse transform="matrix(0.9999 -1.216482e-002 1.216482e-002 0.9999 -0.7405 0.9203)" fill="#FDAC32" cx="75.3" cy="61.3" rx="6.2" ry="3.6"/>
	<g>
		<path fill="#FDAC32" d="M14.2,115.4l-2.7,0c0-3.7-0.4-35.8,0.4-39.9c0.3-1.3,0.7-3.4,32.4-9.8C59.6,62.7,74.9,60,75.1,60l0.5,2.6
			c-27.6,4.7-58.1,11.1-61,13.7C13.9,80.3,14,105.7,14.2,115.4z"/>
	</g>
	<circle fill="#FDAC32" cx="7.9" cy="113.1" r="3.8"/>
	<path fill="#FDAC32" d="M7.9,113.1c0,0-5.1,11.1-3.7,12.5c1.5,1.4,6.3,2.3,8.1-1.1C14.2,121.2,7.9,113.1,7.9,113.1z"/>
	
		<linearGradient id="SVGID_5_" gradientUnits="userSpaceOnUse" x1="85.4324" y1="40.8831" x2="50.249" y2="159.6268" gradientTransform="matrix(0.9999 -1.220000e-002 1.220000e-002 0.9999 0.937 -0.6608)">
		<stop  offset="0" style="stop-color:#F7155D"/>
		<stop  offset="1" style="stop-color:#752454"/>
	</linearGradient>
	<path opacity="0.2" fill="url(#SVGID_5_)" d="M118.6,43.9c-8.4,18.4-34.1,53.9-104.1,32.5c-1.3-0.4-2.5-0.7-3.7-1.1
		c16.5,8.4,64,32,69.4,30.4c6.6-1.9,62.7-38.5,65.7-43C147.3,60.7,134.1,52.4,118.6,43.9z"/>
</g>
</svg>
