<?xml version="1.0" encoding="utf-8"?>
<!-- Generator: Adobe Illustrator 18.0.0, SVG Export Plug-In . SVG Version: 6.00 Build 0)  -->
<!DOCTYPE svg PUBLIC "-//W3C//DTD SVG 1.1//EN" "http://www.w3.org/Graphics/SVG/1.1/DTD/svg11.dtd">
<svg version="1.1" id="Layer_1" xmlns="http://www.w3.org/2000/svg" xmlns:xlink="http://www.w3.org/1999/xlink" x="0px" y="0px"
	 viewBox="0 0 150 150" enable-background="new 0 0 150 150" xml:space="preserve">
<g>
	<linearGradient id="SVGID_1_" gradientUnits="userSpaceOnUse" x1="20.0144" y1="94.4086" x2="130.7372" y2="94.4086">
		<stop  offset="0" style="stop-color:#F7155D"/>
		<stop  offset="1" style="stop-color:#752454"/>
	</linearGradient>
	<path fill="url(#SVGID_1_)" d="M88.8,59.9c0,0-7.6,9.4-22.3,0c-14.7-9.4-38.8-6.5-44.7,14.7c-5.9,21.2,0,68.7,61.7,59.9
		c61.7-8.8,47-61.1,42.3-68.7C118.5,54,102.9,47.6,88.8,59.9z"/>
	<linearGradient id="SVGID_2_" gradientUnits="userSpaceOnUse" x1="84.5464" y1="-23.8541" x2="95.2841" y2="317.067">
		<stop  offset="0" style="stop-color:#67C12C"/>
		<stop  offset="0.4415" style="stop-color:#34942F"/>
		<stop  offset="0.8059" style="stop-color:#107430"/>
		<stop  offset="1" style="stop-color:#026831"/>
	</linearGradient>
	<path fill="url(#SVGID_2_)" d="M88.5,26.6c-9.1,9-12.9,21.8-14.2,28.2c-5.2,0.5-9.1,2.5-9.1,4.9c0,2.8,5.2,5.1,11.7,5.1
		c6.4,0,11.7-2.3,11.7-5.1c0-2.1-3.1-4-7.4-4.7c4.9-21.9,26.8-36.4,26.8-38.6C107.8,14.3,100.4,14.8,88.5,26.6z"/>
	<path fill="#026831" d="M65.2,59.8c0,0.6,0.2,1.2,0.7,1.7c3.2,0.1,7.3-1.5,9.7-3.5l-1.3-3.1l0,0C69.1,55.3,65.2,57.3,65.2,59.8z"/>
	
		<linearGradient id="SVGID_3_" gradientUnits="userSpaceOnUse" x1="81.7366" y1="-2.1731" x2="90.5414" y2="277.3788" gradientTransform="matrix(0.9734 0.2292 -0.2292 0.9734 -21.691 -32.3234)">
		<stop  offset="0" style="stop-color:#67C12C"/>
		<stop  offset="0.4415" style="stop-color:#34942F"/>
		<stop  offset="0.8059" style="stop-color:#107430"/>
		<stop  offset="1" style="stop-color:#026831"/>
	</linearGradient>
	<path fill="url(#SVGID_3_)" d="M76,58c0,0-0.4-30.1-18.5-39c-18.1-8.9-38.2-2.1-38.2-2.1S42.9,68.6,76,58z"/>
	<path opacity="0.5" fill="#026831" d="M76,58c0,0-16.4-36.6-56.7-41.1C19.3,16.9,48.1,23.4,76,58z"/>
	<linearGradient id="SVGID_4_" gradientUnits="userSpaceOnUse" x1="24.1164" y1="94.4098" x2="130.7372" y2="94.4098">
		<stop  offset="0" style="stop-color:#F7155D"/>
		<stop  offset="1" style="stop-color:#752454"/>
	</linearGradient>
	<path opacity="0.2" fill="url(#SVGID_4_)" d="M125.8,65.8c-7.3-11.8-22.8-18.2-36.9-6c3.3,0.6,28.1,6.4,22.3,34.2
		c-5.9,28.2-55.2,40.8-87.1,15.7c7,16.4,24,29.9,59.4,24.8C145.2,125.7,130.5,73.4,125.8,65.8z"/>
	
		<ellipse transform="matrix(0.7994 0.6008 -0.6008 0.7994 51.8115 -7.4712)" opacity="0.3" fill="#FFFFFF" cx="37.1" cy="73.9" rx="6.5" ry="12.4"/>
</g>
</svg>
